M48
;Layer_Color=6321
;FILE_FORMAT=4:4
METRIC,LZ
;TYPE=PLATED
T1F00S00C1.0160
T2F00S00C1.1176
T3F00S00C1.5240
T4F00S00C1.6510
T5F00S00C3.1750
T6F00S00C3.4036
%
T01
X0050165Y003429
Y003683
Y003937
X0065405
Y003683
Y003429
X0073025Y0032385
X0075565
X0094615Y003429
Y003683
Y003937
X0109855
Y003683
Y003429
X0117475Y0032385
X0120015
X013716Y003429
Y003683
Y003937
X01524
Y003683
Y003429
X016002Y0032385
X016256
X01651Y0041275
Y004572
Y005207
Y005461
Y005715
Y005969
X017272Y005588
Y005334
Y00508
Y004826
Y004572
X015748
Y0041275
X01524Y004191
Y004445
Y004699
Y004953
Y005207
Y005461
Y005715
Y005969
Y006223
Y006477
Y006731
Y006985
X015113Y00762
X014351
X013716Y006985
Y006731
Y006477
Y006223
Y005969
Y005715
Y005461
Y005207
Y004953
Y004699
Y004445
Y004191
X0122555Y005207
Y005461
Y005715
Y005969
X015748
Y005715
Y005461
Y005207
X0114935
Y005461
Y005715
Y005969
X0109855
Y006223
Y006477
Y006731
Y006985
X0108585Y00762
X0100965
X0094615Y006985
Y006731
Y006477
Y006223
Y005969
Y005715
Y005461
Y005207
Y004953
Y004699
Y004445
Y004191
X0109855
Y004445
Y004699
Y004953
Y005207
Y005461
Y005715
X0078105
Y005969
Y005461
Y005207
X0070485
Y005461
Y005715
Y005969
X0065405
Y006223
Y006477
Y006731
Y006985
X006096Y007747
X005334
X0050165Y006985
Y006731
Y006477
Y006223
Y005969
Y005715
Y005461
Y005207
Y004953
Y004699
Y004445
Y004191
X0065405
Y004445
Y004699
Y004953
Y005207
Y005461
Y005715
X0042545
Y005461
X003556Y00508
Y004826
Y004572
Y006477
Y006731
X003683Y0097155
X003429
X003175
X00381Y011049
Y011811
X005969Y0108585
Y0106045
Y0103505
Y0100965
X006985
Y0103505
Y0106045
Y0108585
X0079375
Y0106045
Y0103505
Y0100965
X00889
Y0103505
Y0106045
Y0108585
X0098425
Y0106045
Y0103505
Y0100965
X0108585Y0107315
Y0109855
X011684Y01016
Y009906
Y009652
Y009398
Y009144
X0135255
Y009398
Y009652
Y009906
Y01016
X012573Y0107315
Y0109855
X0141605Y0092075
X0149225
Y0085725
X0146685
X0151765
X0164465
X0167005
X0169545
X0167005Y0092075
X0159385
X015875Y014859
X015621Y015367
X015367
X015113Y014859
X014351
X014097Y015367
X013843
X013589Y014859
X012827
X012573Y015367
X012319
X012065Y014859
X012192Y01397
X012446
X0127
X013716
X01397
X014224
X01524
X015494
X015748
Y0130175
Y0122555
X0140335
Y0130175
X012319
Y0122555
X0106045
Y0130175
X010541Y01397
X010795
X011049
X011176Y014859
X011049Y015367
X010795
X010541
X010414Y014859
X009271Y014478
Y0140335
Y013589
X009144Y013081
X00889
X008636
X008509Y013589
Y0140335
Y014478
X008763Y015367
X009017
X007493
X007239
X006985Y014478
Y0140335
Y013589
X007112Y013081
X007366
X00762
X007747Y013589
Y0140335
Y014478
X005588Y0151765
X00508Y015367
X00381Y0135255
Y0127635
X00508Y016129
X005588Y0159385
T02
X0147955Y0102235
X0150495
X01651
X016764
T03
X004191Y014605
X004699
X005715
X006223
X00355854Y01524
Y01575011
T04
X0050165Y003175
X0065405
X0094615
X0109855
X013716
X01524
Y007239
X013716
X0109855
X0094615
X0065405
X0050165
T05
X003175Y003175
X017145
X003175Y017145
X017145
T06
X0171958Y0041656
Y0059944
X0036322Y0060706
Y0054864
Y0041656
Y0071374
X0060452Y0096901
X0070612
Y0112649
X0060452
X0080137
X0089662
X0099187
X0109347Y0113919
Y0103251
X0117602Y0105664
Y0087376
X0099187Y0096901
X0089662
X0080137
X0126492Y0103251
Y0113919
X0136017Y0105664
X0143891Y0101473
X0154559
X0155829Y0084963
X0142621
X0136017Y0087376
X0160401Y0084963
X0173609
X0171704Y0101473
X0161036
X0160274Y0154432
X0149606
X0145034
X0134366
X0129794
X0119126
X0114554
X0101346
X0094234
X0083566
X0078994
X0068326
M30
