G04 Layer_Color=2752767*
%FSLAX45Y45*%
%MOMM*%
%TF.FileFunction,Drawing*%
%TF.Part,Single*%
G01*
G75*
%TA.AperFunction,NonConductor*%
%ADD41C,0.12700*%
%ADD87C,0.16933*%
D41*
X3149600Y3124200D02*
X3200400D01*
Y3149600D01*
X3225800D01*
Y3200400D01*
X3200400D01*
Y3225800D01*
X3149600D01*
Y3200400D01*
X3124200D01*
Y3149600D01*
X3149600D01*
Y3124200D01*
X3606800Y4521200D02*
X3505200D01*
Y4622800D01*
X3606800D01*
Y4521200D01*
Y4775200D02*
X3505200D01*
Y4876800D01*
X3606800D01*
Y4775200D01*
Y5029200D02*
X3505200D01*
Y5130800D01*
X3606800D01*
Y5029200D01*
X4203700Y5410200D02*
Y5511800D01*
X4305300D01*
Y5410200D01*
X4203700D01*
Y5664200D02*
Y5765800D01*
X4305300D01*
Y5664200D01*
X4203700D01*
X4965700Y4902200D02*
Y5003800D01*
X5067300D01*
Y4902200D01*
X4965700D01*
Y4749800D02*
X5067300D01*
Y4648200D01*
X4965700D01*
Y4749800D01*
Y4495800D02*
X5067300D01*
Y4394200D01*
X4965700D01*
Y4495800D01*
Y4241800D02*
X5067300D01*
Y4140200D01*
X4965700D01*
Y4241800D01*
Y3987800D02*
X5067300D01*
Y3886200D01*
X4965700D01*
Y3987800D01*
Y3733800D02*
X5067300D01*
Y3632200D01*
X4965700D01*
Y3733800D01*
Y3479800D02*
X5067300D01*
Y3378200D01*
X4965700D01*
Y3479800D01*
Y3200400D02*
X4991100Y3175000D01*
X4965700Y3149600D01*
X4991100D01*
X5016500Y3124200D01*
X5041900Y3149600D01*
X5067300D01*
X5041900Y3175000D01*
X5067300Y3200400D01*
X5041900D01*
X5016500Y3225800D01*
X4991100Y3200400D01*
X4965700D01*
X6489700D02*
X6515100Y3175000D01*
X6489700Y3149600D01*
X6515100D01*
X6540500Y3124200D01*
X6565900Y3149600D01*
X6591300D01*
X6565900Y3175000D01*
X6591300Y3200400D01*
X6565900D01*
X6540500Y3225800D01*
X6515100Y3200400D01*
X6489700D01*
Y3378200D02*
Y3479800D01*
X6591300D01*
Y3378200D01*
X6489700D01*
Y3632200D02*
Y3733800D01*
X6591300D01*
Y3632200D01*
X6489700D01*
Y3886200D02*
Y3987800D01*
X6591300D01*
Y3886200D01*
X6489700D01*
Y4140200D02*
Y4241800D01*
X6591300D01*
Y4140200D01*
X6489700D01*
Y4394200D02*
Y4495800D01*
X6591300D01*
Y4394200D01*
X6489700D01*
Y4648200D02*
Y4749800D01*
X6591300D01*
Y4648200D01*
X6489700D01*
Y4902200D02*
Y5003800D01*
X6591300D01*
Y4902200D01*
X6489700D01*
X6997700Y5156200D02*
Y5257800D01*
X7099300D01*
Y5156200D01*
X6997700D01*
Y5410200D02*
Y5511800D01*
X7099300D01*
Y5410200D01*
X6997700D01*
Y5664200D02*
Y5765800D01*
X7099300D01*
Y5664200D01*
X6997700D01*
Y5918200D02*
Y6019800D01*
X7099300D01*
Y5918200D01*
X6997700D01*
X6591300Y6172200D02*
X6489700D01*
Y6273800D01*
X6591300D01*
Y6172200D01*
Y6019800D02*
Y5918200D01*
X6489700D01*
Y6019800D01*
X6591300D01*
Y5765800D02*
Y5664200D01*
X6489700D01*
Y5765800D01*
X6591300D01*
Y5511800D02*
Y5410200D01*
X6489700D01*
Y5511800D01*
X6591300D01*
Y5257800D02*
Y5156200D01*
X6489700D01*
Y5257800D01*
X6591300D01*
X7759700D02*
X7861300D01*
Y5156200D01*
X7759700D01*
Y5257800D01*
X7861300Y5410200D02*
X7759700D01*
Y5511800D01*
X7861300D01*
Y5410200D01*
Y5664200D02*
X7759700D01*
Y5765800D01*
X7861300D01*
Y5664200D01*
Y5918200D02*
X7759700D01*
Y6019800D01*
X7861300D01*
Y5918200D01*
X9410700Y4495800D02*
X9512300D01*
Y4394200D01*
X9410700D01*
Y4495800D01*
Y4241800D02*
X9512300D01*
Y4140200D01*
X9410700D01*
Y4241800D01*
Y3987800D02*
X9512300D01*
Y3886200D01*
X9410700D01*
Y3987800D01*
Y3733800D02*
X9512300D01*
Y3632200D01*
X9410700D01*
Y3733800D01*
Y3479800D02*
X9512300D01*
Y3378200D01*
X9410700D01*
Y3479800D01*
X9461500Y3225800D02*
X9436100Y3200400D01*
X9410700D01*
X9436100Y3175000D01*
X9410700Y3149600D01*
X9436100D01*
X9461500Y3124200D01*
X9486900Y3149600D01*
X9512300D01*
X9486900Y3175000D01*
X9512300Y3200400D01*
X9486900D01*
X9461500Y3225800D01*
X10934700Y3200400D02*
X10960100Y3175000D01*
X10934700Y3149600D01*
X10960100D01*
X10985500Y3124200D01*
X11010900Y3149600D01*
X11036300D01*
X11010900Y3175000D01*
X11036300Y3200400D01*
X11010900D01*
X10985500Y3225800D01*
X10960100Y3200400D01*
X10934700D01*
X11036300Y3378200D02*
X10934700D01*
Y3479800D01*
X11036300D01*
Y3378200D01*
X11696700Y3187700D02*
Y3289300D01*
X11798300D01*
Y3187700D01*
X11696700D01*
X11950700D02*
Y3289300D01*
X12052300D01*
Y3187700D01*
X11950700D01*
X11036300Y3632200D02*
X10934700D01*
Y3733800D01*
X11036300D01*
Y3632200D01*
Y3886200D02*
X10934700D01*
Y3987800D01*
X11036300D01*
Y3886200D01*
Y4140200D02*
X10934700D01*
Y4241800D01*
X11036300D01*
Y4140200D01*
Y4394200D02*
X10934700D01*
Y4495800D01*
X11036300D01*
Y4394200D01*
Y4648200D02*
X10934700D01*
Y4749800D01*
X11036300D01*
Y4648200D01*
Y4902200D02*
X10934700D01*
Y5003800D01*
X11036300D01*
Y4902200D01*
X11442700Y5156200D02*
Y5257800D01*
X11544300D01*
Y5156200D01*
X11442700D01*
Y5410200D02*
Y5511800D01*
X11544300D01*
Y5410200D01*
X11442700D01*
Y5664200D02*
Y5765800D01*
X11544300D01*
Y5664200D01*
X11442700D01*
Y5918200D02*
Y6019800D01*
X11544300D01*
Y5918200D01*
X11442700D01*
X11036300Y6172200D02*
X10934700D01*
Y6273800D01*
X11036300D01*
Y6172200D01*
Y6019800D02*
Y5918200D01*
X10934700D01*
Y6019800D01*
X11036300D01*
Y5765800D02*
Y5664200D01*
X10934700D01*
Y5765800D01*
X11036300D01*
Y5511800D02*
Y5410200D01*
X10934700D01*
Y5511800D01*
X11036300D01*
Y5257800D02*
Y5156200D01*
X10934700D01*
Y5257800D01*
X11036300D01*
X12204700D02*
X12306300D01*
Y5156200D01*
X12204700D01*
Y5257800D01*
Y5410200D02*
Y5511800D01*
X12306300D01*
Y5410200D01*
X12204700D01*
Y5664200D02*
Y5765800D01*
X12306300D01*
Y5664200D01*
X12204700D01*
Y5918200D02*
Y6019800D01*
X12306300D01*
Y5918200D01*
X12204700D01*
X11036300Y6781800D02*
Y6680200D01*
X10934700D01*
Y6781800D01*
X11036300D01*
Y6934200D02*
X10934700D01*
Y7035800D01*
X11036300D01*
Y6934200D01*
Y6527800D02*
Y6426200D01*
X10934700D01*
Y6527800D01*
X11036300D01*
Y7213600D02*
X11010900Y7239000D01*
X11036300Y7264400D01*
X11010900D01*
X10985500Y7289800D01*
X10960100Y7264400D01*
X10934700D01*
X10960100Y7239000D01*
X10934700Y7213600D01*
X10960100D01*
X10985500Y7188200D01*
X11010900Y7213600D01*
X11036300D01*
X10909300Y7569200D02*
X10807700D01*
Y7670800D01*
X10909300D01*
Y7569200D01*
X10147300D02*
X10045700D01*
Y7670800D01*
X10147300D01*
Y7569200D01*
X9512300Y7264400D02*
X9486900D01*
X9461500Y7289800D01*
X9436100Y7264400D01*
X9410700D01*
X9436100Y7239000D01*
X9410700Y7213600D01*
X9436100D01*
X9461500Y7188200D01*
X9486900Y7213600D01*
X9512300D01*
X9486900Y7239000D01*
X9512300Y7264400D01*
Y7035800D02*
Y6934200D01*
X9410700D01*
Y7035800D01*
X9512300D01*
Y6781800D02*
Y6680200D01*
X9410700D01*
Y6781800D01*
X9512300D01*
Y6527800D02*
Y6426200D01*
X9410700D01*
Y6527800D01*
X9512300D01*
Y6273800D02*
Y6172200D01*
X9410700D01*
Y6273800D01*
X9512300D01*
Y6019800D02*
Y5918200D01*
X9410700D01*
Y6019800D01*
X9512300D01*
Y5765800D02*
Y5664200D01*
X9410700D01*
Y5765800D01*
X9512300D01*
Y5511800D02*
Y5410200D01*
X9410700D01*
Y5511800D01*
X9512300D01*
Y5257800D02*
Y5156200D01*
X9410700D01*
Y5257800D01*
X9512300D01*
Y5003800D02*
Y4902200D01*
X9410700D01*
Y5003800D01*
X9512300D01*
Y4749800D02*
Y4648200D01*
X9410700D01*
Y4749800D01*
X9512300D01*
X7607300Y3289300D02*
Y3187700D01*
X7505700D01*
Y3289300D01*
X7607300D01*
X7353300D02*
Y3187700D01*
X7251700D01*
Y3289300D01*
X7353300D01*
X5067300Y5410200D02*
X4965700D01*
Y5511800D01*
X5067300D01*
Y5410200D01*
Y5664200D02*
X4965700D01*
Y5765800D01*
X5067300D01*
Y5664200D01*
Y5257800D02*
Y5156200D01*
X4965700D01*
Y5257800D01*
X5067300D01*
Y5918200D02*
X4965700D01*
Y6019800D01*
X5067300D01*
Y5918200D01*
Y6172200D02*
X4965700D01*
Y6273800D01*
X5067300D01*
Y6172200D01*
Y6426200D02*
X4965700D01*
Y6527800D01*
X5067300D01*
Y6426200D01*
Y6680200D02*
X4965700D01*
Y6781800D01*
X5067300D01*
Y6680200D01*
Y6934200D02*
X4965700D01*
Y7035800D01*
X5067300D01*
Y6934200D01*
Y7213600D02*
X5041900Y7239000D01*
X5067300Y7264400D01*
X5041900D01*
X5016500Y7289800D01*
X4991100Y7264400D01*
X4965700D01*
X4991100Y7239000D01*
X4965700Y7213600D01*
X4991100D01*
X5016500Y7188200D01*
X5041900Y7213600D01*
X5067300D01*
X5384800Y7696200D02*
X5283200D01*
Y7797800D01*
X5384800D01*
Y7696200D01*
X6045200D02*
Y7797800D01*
X6146800D01*
Y7696200D01*
X6045200D01*
X6489700Y7035800D02*
X6591300D01*
Y6934200D01*
X6489700D01*
Y7035800D01*
Y6781800D02*
X6591300D01*
Y6680200D01*
X6489700D01*
Y6781800D01*
Y6527800D02*
X6591300D01*
Y6426200D01*
X6489700D01*
Y6527800D01*
Y7213600D02*
X6515100D01*
X6540500Y7188200D01*
X6565900Y7213600D01*
X6591300D01*
X6565900Y7239000D01*
X6591300Y7264400D01*
X6565900D01*
X6540500Y7289800D01*
X6515100Y7264400D01*
X6489700D01*
X6515100Y7239000D01*
X6489700Y7213600D01*
X8940800Y10045700D02*
X8839200D01*
Y10147300D01*
X8940800D01*
Y10045700D01*
Y10299700D02*
X8839200D01*
Y10401300D01*
X8940800D01*
Y10299700D01*
Y10553700D02*
X8839200D01*
Y10655300D01*
X8940800D01*
Y10553700D01*
Y10807700D02*
X8839200D01*
Y10909300D01*
X8940800D01*
Y10807700D01*
X9791700Y10299700D02*
Y10401300D01*
X9893300D01*
Y10299700D01*
X9791700D01*
Y10147300D02*
X9893300D01*
Y10045700D01*
X9791700D01*
Y10147300D01*
Y10553700D02*
Y10655300D01*
X9893300D01*
Y10553700D01*
X9791700D01*
Y10807700D02*
Y10909300D01*
X9893300D01*
Y10807700D01*
X9791700D01*
X10807700Y10782300D02*
X10909300D01*
Y10680700D01*
X10807700D01*
Y10782300D01*
Y10934700D02*
Y11036300D01*
X10909300D01*
Y10934700D01*
X10807700D01*
X11633200Y10210800D02*
X11734800D01*
Y10109200D01*
X11633200D01*
Y10210800D01*
Y9956800D02*
X11734800D01*
Y9855200D01*
X11633200D01*
Y9956800D01*
Y9702800D02*
X11734800D01*
Y9601200D01*
X11633200D01*
Y9702800D01*
Y9448800D02*
X11734800D01*
Y9347200D01*
X11633200D01*
Y9448800D01*
Y9194800D02*
X11734800D01*
Y9093200D01*
X11633200D01*
Y9194800D01*
X13474699D02*
X13576300D01*
Y9093200D01*
X13474699D01*
Y9194800D01*
X13576300Y9347200D02*
X13474699D01*
Y9448800D01*
X13576300D01*
Y9347200D01*
Y9601200D02*
X13474699D01*
Y9702800D01*
X13576300D01*
Y9601200D01*
X14109700Y9156700D02*
Y9258300D01*
X14211301D01*
Y9156700D01*
X14109700D01*
X14617700Y8521700D02*
Y8623300D01*
X14719299D01*
Y8521700D01*
X14617700D01*
X14871700D02*
Y8623300D01*
X14973300D01*
Y8521700D01*
X14871700D01*
X15125700D02*
Y8623300D01*
X15227299D01*
Y8521700D01*
X15125700D01*
X15163800Y7670800D02*
Y7569200D01*
X15062199D01*
Y7670800D01*
X15163800D01*
X15189200Y7264400D02*
X15214600Y7239000D01*
X15189200Y7213600D01*
X15214600D01*
X15239999Y7188200D01*
X15265401Y7213600D01*
X15290800D01*
X15265401Y7239000D01*
X15290800Y7264400D01*
X15265401D01*
X15239999Y7289800D01*
X15214600Y7264400D01*
X15189200D01*
Y7035800D02*
X15290800D01*
Y6934200D01*
X15189200D01*
Y7035800D01*
Y6781800D02*
X15290800D01*
Y6680200D01*
X15189200D01*
Y6781800D01*
Y6527800D02*
X15290800D01*
Y6426200D01*
X15189200D01*
Y6527800D01*
Y6273800D02*
X15290800D01*
Y6172200D01*
X15189200D01*
Y6273800D01*
Y6019800D02*
X15290800D01*
Y5918200D01*
X15189200D01*
Y6019800D01*
Y5765800D02*
X15290800D01*
Y5664200D01*
X15189200D01*
Y5765800D01*
Y5511800D02*
X15290800D01*
Y5410200D01*
X15189200D01*
Y5511800D01*
Y5257800D02*
X15290800D01*
Y5156200D01*
X15189200D01*
Y5257800D01*
Y5003800D02*
X15290800D01*
Y4902200D01*
X15189200D01*
Y5003800D01*
Y4749800D02*
X15290800D01*
Y4648200D01*
X15189200D01*
Y4749800D01*
Y4495800D02*
X15290800D01*
Y4394200D01*
X15189200D01*
Y4495800D01*
Y4241800D02*
X15290800D01*
Y4140200D01*
X15189200D01*
Y4241800D01*
Y3987800D02*
X15290800D01*
Y3886200D01*
X15189200D01*
Y3987800D01*
Y3733800D02*
X15290800D01*
Y3632200D01*
X15189200D01*
Y3733800D01*
Y3479800D02*
X15290800D01*
Y3378200D01*
X15189200D01*
Y3479800D01*
X15239999Y3225800D02*
X15214600Y3200400D01*
X15189200D01*
X15214600Y3175000D01*
X15189200Y3149600D01*
X15214600D01*
X15239999Y3124200D01*
X15265401Y3149600D01*
X15290800D01*
X15265401Y3175000D01*
X15290800Y3200400D01*
X15265401D01*
X15239999Y3225800D01*
X15951199Y3187700D02*
Y3289300D01*
X16052800D01*
Y3187700D01*
X15951199D01*
X16205200D02*
Y3289300D01*
X16306799D01*
Y3187700D01*
X16205200D01*
X17094200Y3200400D02*
Y3149600D01*
X17119600D01*
Y3124200D01*
X17170399D01*
Y3149600D01*
X17195799D01*
Y3200400D01*
X17170399D01*
Y3225800D01*
X17119600D01*
Y3200400D01*
X17094200D01*
X16560800Y4076700D02*
X16459200D01*
Y4178300D01*
X16560800D01*
Y4076700D01*
Y4521200D02*
X16459200D01*
Y4622800D01*
X16560800D01*
Y4521200D01*
X17221201D02*
Y4622800D01*
X17322800D01*
Y4521200D01*
X17221201D01*
Y4775200D02*
Y4876800D01*
X17322800D01*
Y4775200D01*
X17221201D01*
Y5029200D02*
Y5130800D01*
X17322800D01*
Y5029200D01*
X17221201D01*
Y5283200D02*
Y5384800D01*
X17322800D01*
Y5283200D01*
X17221201D01*
Y5537200D02*
Y5638800D01*
X17322800D01*
Y5537200D01*
X17221201D01*
X16560800Y5765800D02*
Y5664200D01*
X16459200D01*
Y5765800D01*
X16560800D01*
Y5918200D02*
X16459200D01*
Y6019800D01*
X16560800D01*
Y5918200D01*
Y5511800D02*
Y5410200D01*
X16459200D01*
Y5511800D01*
X16560800D01*
Y5257800D02*
Y5156200D01*
X16459200D01*
Y5257800D01*
X16560800D01*
X15798801Y5765800D02*
Y5664200D01*
X15697200D01*
Y5765800D01*
X15798801D01*
Y5918200D02*
X15697200D01*
Y6019800D01*
X15798801D01*
Y5918200D01*
Y5511800D02*
Y5410200D01*
X15697200D01*
Y5511800D01*
X15798801D01*
Y5257800D02*
Y5156200D01*
X15697200D01*
Y5257800D01*
X15798801D01*
Y4622800D02*
Y4521200D01*
X15697200D01*
Y4622800D01*
X15798801D01*
Y4178300D02*
Y4076700D01*
X15697200D01*
Y4178300D01*
X15798801D01*
X13766800Y6172200D02*
X13665199D01*
Y6273800D01*
X13766800D01*
Y6172200D01*
Y6019800D02*
Y5918200D01*
X13665199D01*
Y6019800D01*
X13766800D01*
Y5765800D02*
Y5664200D01*
X13665199D01*
Y5765800D01*
X13766800D01*
Y5511800D02*
Y5410200D01*
X13665199D01*
Y5511800D01*
X13766800D01*
Y5257800D02*
Y5156200D01*
X13665199D01*
Y5257800D01*
X13766800D01*
Y5003800D02*
Y4902200D01*
X13665199D01*
Y5003800D01*
X13766800D01*
Y4749800D02*
Y4648200D01*
X13665199D01*
Y4749800D01*
X13766800D01*
Y4495800D02*
Y4394200D01*
X13665199D01*
Y4495800D01*
X13766800D01*
Y4241800D02*
Y4140200D01*
X13665199D01*
Y4241800D01*
X13766800D01*
Y3987800D02*
Y3886200D01*
X13665199D01*
Y3987800D01*
X13766800D01*
Y3733800D02*
Y3632200D01*
X13665199D01*
Y3733800D01*
X13766800D01*
Y3479800D02*
Y3378200D01*
X13665199D01*
Y3479800D01*
X13766800D01*
X13716000Y3225800D02*
X13690601Y3200400D01*
X13665199D01*
X13690601Y3175000D01*
X13665199Y3149600D01*
X13690601D01*
X13716000Y3124200D01*
X13741400Y3149600D01*
X13766800D01*
X13741400Y3175000D01*
X13766800Y3200400D01*
X13741400D01*
X13716000Y3225800D01*
X13665199Y6426200D02*
Y6527800D01*
X13766800D01*
Y6426200D01*
X13665199D01*
Y6680200D02*
Y6781800D01*
X13766800D01*
Y6680200D01*
X13665199D01*
Y6934200D02*
Y7035800D01*
X13766800D01*
Y6934200D01*
X13665199D01*
Y7213600D02*
X13690601D01*
X13716000Y7188200D01*
X13741400Y7213600D01*
X13766800D01*
X13741400Y7239000D01*
X13766800Y7264400D01*
X13741400D01*
X13716000Y7289800D01*
X13690601Y7264400D01*
X13665199D01*
X13690601Y7239000D01*
X13665199Y7213600D01*
X14300200Y7569200D02*
Y7670800D01*
X14401801D01*
Y7569200D01*
X14300200D01*
X15887700Y9156700D02*
Y9258300D01*
X15989301D01*
Y9156700D01*
X15887700D01*
X16395700Y8521700D02*
Y8623300D01*
X16497301D01*
Y8521700D01*
X16395700D01*
X16649699D02*
Y8623300D01*
X16751300D01*
Y8521700D01*
X16649699D01*
X16903700D02*
Y8623300D01*
X17005299D01*
Y8521700D01*
X16903700D01*
X16751300Y9156700D02*
X16649699D01*
Y9258300D01*
X16751300D01*
Y9156700D01*
X16764000Y10172700D02*
X16713200Y10274300D01*
X16814799D01*
X16764000Y10172700D01*
X16510001D02*
X16459200Y10274300D01*
X16560800D01*
X16510001Y10172700D01*
X15049500D02*
X14998700Y10274300D01*
X15100301D01*
X15049500Y10172700D01*
X14795500D02*
X14744701Y10274300D01*
X14846300D01*
X14795500Y10172700D01*
X14871700Y9258300D02*
X14973300D01*
Y9156700D01*
X14871700D01*
Y9258300D01*
X13576300Y10109200D02*
X13474699D01*
Y10210800D01*
X13576300D01*
Y10109200D01*
Y9956800D02*
Y9855200D01*
X13474699D01*
Y9956800D01*
X13576300D01*
X12623800Y10680700D02*
X12522200D01*
Y10782300D01*
X12623800D01*
Y10680700D01*
Y10934700D02*
X12522200D01*
Y11036300D01*
X12623800D01*
Y10934700D01*
X13982700Y12204700D02*
Y12306300D01*
X14084300D01*
Y12204700D01*
X13982700D01*
Y12966701D02*
Y13068300D01*
X14084300D01*
Y12966701D01*
X13982700D01*
X15189200Y13919200D02*
Y14020799D01*
X15290800D01*
Y13919200D01*
X15189200D01*
X15443201D02*
Y14020799D01*
X15544800D01*
Y13919200D01*
X15443201D01*
X15697200D02*
Y14020799D01*
X15798801D01*
Y13919200D01*
X15697200D01*
X15824200Y14808200D02*
Y14909801D01*
X15925800D01*
Y14808200D01*
X15824200D01*
X15671800Y15316200D02*
X15570200D01*
Y15417799D01*
X15671800D01*
Y15316200D01*
X15417799D02*
X15316200D01*
Y15417799D01*
X15417799D01*
Y15316200D01*
X15163800Y14909801D02*
Y14808200D01*
X15062199D01*
Y14909801D01*
X15163800D01*
X14401801D02*
Y14808200D01*
X14300200D01*
Y14909801D01*
X14401801D01*
X14173199Y14020799D02*
X14274800D01*
Y13919200D01*
X14173199D01*
Y14020799D01*
X14020799D02*
Y13919200D01*
X13919200D01*
Y14020799D01*
X14020799D01*
X13766800D02*
Y13919200D01*
X13665199D01*
Y14020799D01*
X13766800D01*
X13639799Y14808200D02*
X13538200D01*
Y14909801D01*
X13639799D01*
Y14808200D01*
X13893800Y15316200D02*
X13792200D01*
Y15417799D01*
X13893800D01*
Y15316200D01*
X14046201D02*
Y15417799D01*
X14147800D01*
Y15316200D01*
X14046201D01*
X12877800Y14909801D02*
Y14808200D01*
X12776200D01*
Y14909801D01*
X12877800D01*
X12750800Y14020799D02*
Y13919200D01*
X12649200D01*
Y14020799D01*
X12750800D01*
X12496800D02*
Y13919200D01*
X12395200D01*
Y14020799D01*
X12496800D01*
X12242800D02*
Y13919200D01*
X12141200D01*
Y14020799D01*
X12242800D01*
X12115800Y14808200D02*
X12014200D01*
Y14909801D01*
X12115800D01*
Y14808200D01*
X12522200Y15316200D02*
Y15417799D01*
X12623800D01*
Y15316200D01*
X12522200D01*
X12369800D02*
X12268200D01*
Y15417799D01*
X12369800D01*
Y15316200D01*
X11099800D02*
X10998200D01*
Y15417799D01*
X11099800D01*
Y15316200D01*
X10845800D02*
X10744200D01*
Y15417799D01*
X10845800D01*
Y15316200D01*
X10591800D02*
X10490200D01*
Y15417799D01*
X10591800D01*
Y15316200D01*
X10464800Y14909801D02*
Y14808200D01*
X10363200D01*
Y14909801D01*
X10464800D01*
X10490200Y14020799D02*
X10591800D01*
Y13919200D01*
X10490200D01*
Y14020799D01*
X10744200D02*
X10845800D01*
Y13919200D01*
X10744200D01*
Y14020799D01*
X10998200D02*
X11099800D01*
Y13919200D01*
X10998200D01*
Y14020799D01*
X11125200Y14808200D02*
Y14909801D01*
X11226800D01*
Y14808200D01*
X11125200D01*
X10655300Y13068300D02*
Y12966701D01*
X10553700D01*
Y13068300D01*
X10655300D01*
Y12306300D02*
Y12204700D01*
X10553700D01*
Y12306300D01*
X10655300D01*
X9321800Y13538200D02*
X9220200D01*
Y13639799D01*
X9321800D01*
Y13538200D01*
Y13982700D02*
X9220200D01*
Y14084300D01*
X9321800D01*
Y13982700D01*
Y14427200D02*
X9220200D01*
Y14528799D01*
X9321800D01*
Y14427200D01*
X8559800D02*
X8458200D01*
Y14528799D01*
X8559800D01*
Y14427200D01*
Y14084300D02*
Y13982700D01*
X8458200D01*
Y14084300D01*
X8559800D01*
Y13639799D02*
Y13538200D01*
X8458200D01*
Y13639799D01*
X8559800D01*
X8585200Y13131799D02*
X8686800D01*
Y13030200D01*
X8585200D01*
Y13131799D01*
X8839200D02*
X8940800D01*
Y13030200D01*
X8839200D01*
Y13131799D01*
X9093200D02*
X9194800D01*
Y13030200D01*
X9093200D01*
Y13131799D01*
X7797800Y14427200D02*
X7696200D01*
Y14528799D01*
X7797800D01*
Y14427200D01*
Y14084300D02*
Y13982700D01*
X7696200D01*
Y14084300D01*
X7797800D01*
Y13639799D02*
Y13538200D01*
X7696200D01*
Y13639799D01*
X7797800D01*
X7416800Y13131799D02*
Y13030200D01*
X7315200D01*
Y13131799D01*
X7416800D01*
X7162800D02*
Y13030200D01*
X7061200D01*
Y13131799D01*
X7162800D01*
X7569200D02*
X7670800D01*
Y13030200D01*
X7569200D01*
Y13131799D01*
X7035800Y13538200D02*
X6934200D01*
Y13639799D01*
X7035800D01*
Y13538200D01*
Y13982700D02*
X6934200D01*
Y14084300D01*
X7035800D01*
Y13982700D01*
Y14427200D02*
X6934200D01*
Y14528799D01*
X7035800D01*
Y14427200D01*
X6248400Y14605000D02*
X6273800Y14554201D01*
X6223000Y14579601D01*
X6172200Y14554201D01*
X6197600Y14605000D01*
X6172200Y14655800D01*
X6223000Y14630400D01*
X6273800Y14655800D01*
X6248400Y14605000D01*
X5740400D02*
X5765800Y14554201D01*
X5715000Y14579601D01*
X5664200Y14554201D01*
X5689600Y14605000D01*
X5664200Y14655800D01*
X5715000Y14630400D01*
X5765800Y14655800D01*
X5740400Y14605000D01*
X5638800Y15125700D02*
X5537200D01*
Y15227299D01*
X5638800D01*
Y15125700D01*
X5130800Y15316200D02*
X5029200D01*
Y15417799D01*
X5130800D01*
Y15316200D01*
X5537200Y15887700D02*
Y15989301D01*
X5638800D01*
Y15887700D01*
X5537200D01*
X5130800Y16078200D02*
X5029200D01*
Y16179800D01*
X5130800D01*
Y16078200D01*
X4241800Y14655800D02*
X4216400Y14605000D01*
X4241800Y14554201D01*
X4191000Y14579601D01*
X4140200Y14554201D01*
X4165600Y14605000D01*
X4140200Y14655800D01*
X4191000Y14630400D01*
X4241800Y14655800D01*
X3609340Y15189200D02*
X3558540Y15214600D01*
X3507740Y15189200D01*
X3533140Y15239999D01*
X3507740Y15290800D01*
X3558540Y15265401D01*
X3609340Y15290800D01*
X3583940Y15239999D01*
X3609340Y15189200D01*
Y15699307D02*
X3558540Y15724709D01*
X3507740Y15699307D01*
X3533140Y15750108D01*
X3507740Y15800908D01*
X3558540Y15775508D01*
X3609340Y15800908D01*
X3583940Y15750108D01*
X3609340Y15699307D01*
X4648200Y14655800D02*
X4699000Y14630400D01*
X4749800Y14655800D01*
X4724400Y14605000D01*
X4749800Y14554201D01*
X4699000Y14579601D01*
X4648200Y14554201D01*
X4673600Y14605000D01*
X4648200Y14655800D01*
X3860800Y13576300D02*
Y13474699D01*
X3759200D01*
Y13576300D01*
X3860800D01*
Y12814301D02*
Y12712700D01*
X3759200D01*
Y12814301D01*
X3860800D01*
Y11861800D02*
Y11760200D01*
X3759200D01*
Y11861800D01*
X3860800D01*
Y11099800D02*
Y10998200D01*
X3759200D01*
Y11099800D01*
X3860800D01*
X3124200Y9766300D02*
X3225800D01*
Y9664700D01*
X3124200D01*
Y9766300D01*
X3378200D02*
X3479800D01*
Y9664700D01*
X3378200D01*
Y9766300D01*
X3632200D02*
X3733800D01*
Y9664700D01*
X3632200D01*
Y9766300D01*
X5918200Y10045700D02*
Y10147300D01*
X6019800D01*
Y10045700D01*
X5918200D01*
Y10299700D02*
Y10401300D01*
X6019800D01*
Y10299700D01*
X5918200D01*
Y10553700D02*
Y10655300D01*
X6019800D01*
Y10553700D01*
X5918200D01*
Y10807700D02*
Y10909300D01*
X6019800D01*
Y10807700D01*
X5918200D01*
X6934200Y10299700D02*
Y10401300D01*
X7035800D01*
Y10299700D01*
X6934200D01*
Y10147300D02*
X7035800D01*
Y10045700D01*
X6934200D01*
Y10147300D01*
Y10553700D02*
Y10655300D01*
X7035800D01*
Y10553700D01*
X6934200D01*
Y10807700D02*
Y10909300D01*
X7035800D01*
Y10807700D01*
X6934200D01*
X7886700Y10299700D02*
Y10401300D01*
X7988300D01*
Y10299700D01*
X7886700D01*
Y10147300D02*
X7988300D01*
Y10045700D01*
X7886700D01*
Y10147300D01*
Y10553700D02*
Y10655300D01*
X7988300D01*
Y10553700D01*
X7886700D01*
Y10807700D02*
Y10909300D01*
X7988300D01*
Y10807700D01*
X7886700D01*
X12268200Y12204700D02*
Y12306300D01*
X12369800D01*
Y12204700D01*
X12268200D01*
Y12966701D02*
Y13068300D01*
X12369800D01*
Y12966701D01*
X12268200D01*
X9067800Y15316200D02*
X8966200D01*
Y15417799D01*
X9067800D01*
Y15316200D01*
X8813800D02*
X8712200D01*
Y15417799D01*
X8813800D01*
Y15316200D01*
X7543800D02*
X7442200D01*
Y15417799D01*
X7543800D01*
Y15316200D01*
X7289800D02*
X7188200D01*
Y15417799D01*
X7289800D01*
Y15316200D01*
X3225800Y17119600D02*
Y17170399D01*
X3200400D01*
Y17195799D01*
X3149600D01*
Y17170399D01*
X3124200D01*
Y17119600D01*
X3149600D01*
Y17094200D01*
X3200400D01*
Y17119600D01*
X3225800D01*
X3505200Y6781800D02*
X3606800D01*
Y6680200D01*
X3505200D01*
Y6781800D01*
Y6527800D02*
X3606800D01*
Y6426200D01*
X3505200D01*
Y6527800D01*
X15697200Y12204700D02*
Y12306300D01*
X15798801D01*
Y12204700D01*
X15697200D01*
Y12966701D02*
Y13068300D01*
X15798801D01*
Y12966701D01*
X15697200D01*
X17119600Y17094200D02*
X17170399D01*
Y17119600D01*
X17195799D01*
Y17170399D01*
X17170399D01*
Y17195799D01*
X17119600D01*
Y17170399D01*
X17094200D01*
Y17119600D01*
X17119600D01*
Y17094200D01*
D87*
X3683000Y4165600D02*
G03*
X3683000Y4165600I-50800J0D01*
G01*
Y5486400D02*
G03*
X3683000Y5486400I-50800J0D01*
G01*
Y6070600D02*
G03*
X3683000Y6070600I-50800J0D01*
G01*
Y7137400D02*
G03*
X3683000Y7137400I-50800J0D01*
G01*
X6096000Y9690100D02*
G03*
X6096000Y9690100I-50800J0D01*
G01*
X7112000D02*
G03*
X7112000Y9690100I-50800J0D01*
G01*
X8064500D02*
G03*
X8064500Y9690100I-50800J0D01*
G01*
X9017000D02*
G03*
X9017000Y9690100I-50800J0D01*
G01*
X9969500D02*
G03*
X9969500Y9690100I-50800J0D01*
G01*
X10985500Y10325100D02*
G03*
X10985500Y10325100I-50800J0D01*
G01*
X9969500Y11264900D02*
G03*
X9969500Y11264900I-50800J0D01*
G01*
X10985500Y11391900D02*
G03*
X10985500Y11391900I-50800J0D01*
G01*
X11811000Y10566400D02*
G03*
X11811000Y10566400I-50800J0D01*
G01*
X12700000Y10325100D02*
G03*
X12700000Y10325100I-50800J0D01*
G01*
X13652499Y10566400D02*
G03*
X13652499Y10566400I-50800J0D01*
G01*
X14439900Y10147300D02*
G03*
X14439900Y10147300I-50800J0D01*
G01*
X15506700D02*
G03*
X15506700Y10147300I-50800J0D01*
G01*
X16154401D02*
G03*
X16154401Y10147300I-50800J0D01*
G01*
X17221201D02*
G03*
X17221201Y10147300I-50800J0D01*
G01*
X16090900Y8496300D02*
G03*
X16090900Y8496300I-50800J0D01*
G01*
X15633701D02*
G03*
X15633701Y8496300I-50800J0D01*
G01*
X14312900D02*
G03*
X14312900Y8496300I-50800J0D01*
G01*
X13652499Y8737600D02*
G03*
X13652499Y8737600I-50800J0D01*
G01*
X11811000D02*
G03*
X11811000Y8737600I-50800J0D01*
G01*
X12700000Y11391900D02*
G03*
X12700000Y11391900I-50800J0D01*
G01*
X9017000Y11264900D02*
G03*
X9017000Y11264900I-50800J0D01*
G01*
X8064500D02*
G03*
X8064500Y11264900I-50800J0D01*
G01*
X7112000D02*
G03*
X7112000Y11264900I-50800J0D01*
G01*
X6096000D02*
G03*
X6096000Y11264900I-50800J0D01*
G01*
X10185400Y15443201D02*
G03*
X10185400Y15443201I-50800J0D01*
G01*
X9474200D02*
G03*
X9474200Y15443201I-50800J0D01*
G01*
X8407400D02*
G03*
X8407400Y15443201I-50800J0D01*
G01*
X7950200D02*
G03*
X7950200Y15443201I-50800J0D01*
G01*
X6883400D02*
G03*
X6883400Y15443201I-50800J0D01*
G01*
X11506200D02*
G03*
X11506200Y15443201I-50800J0D01*
G01*
X11963400D02*
G03*
X11963400Y15443201I-50800J0D01*
G01*
X13030200D02*
G03*
X13030200Y15443201I-50800J0D01*
G01*
X13487399D02*
G03*
X13487399Y15443201I-50800J0D01*
G01*
X14554201D02*
G03*
X14554201Y15443201I-50800J0D01*
G01*
X15011400D02*
G03*
X15011400Y15443201I-50800J0D01*
G01*
X16078200D02*
G03*
X16078200Y15443201I-50800J0D01*
G01*
X17411700Y8496300D02*
G03*
X17411700Y8496300I-50800J0D01*
G01*
X17246600Y5994400D02*
G03*
X17246600Y5994400I-50800J0D01*
G01*
Y4165600D02*
G03*
X17246600Y4165600I-50800J0D01*
G01*
%TF.MD5,F39ECE7C6CA6F7375A25FB8342416BA3*%
M02*
