G04 Layer_Color=11767835*
%FSLAX45Y45*%
%MOMM*%
%TF.FileFunction,Pads,Bot*%
%TF.Part,Single*%
G01*
G75*
%TA.AperFunction,ComponentPad*%
%ADD25O,1.90500X3.55600*%
%ADD26C,3.40360*%
%ADD27R,1.90500X3.55600*%
%ADD28C,1.65100*%
%ADD29O,3.55600X1.90500*%
%ADD30R,3.55600X1.90500*%
%ADD31R,3.30200X1.90500*%
%ADD32O,3.30200X1.90500*%
%ADD33O,1.90500X3.58140*%
%ADD34O,1.90500X3.30200*%
%ADD35R,1.90500X3.30200*%
%ADD36O,3.55600X1.90500*%
%TA.AperFunction,ViaPad*%
%ADD37C,6.35000*%
%TA.AperFunction,ComponentPad*%
%ADD38O,3.55600X2.54000*%
%ADD39O,3.04800X1.90500*%
D25*
X7302500Y3238500D02*
D03*
X10858500Y7620000D02*
D03*
X10096500D02*
D03*
X14160500Y9207500D02*
D03*
X14922501Y8572500D02*
D03*
X15176500D02*
D03*
X14922501Y9207500D02*
D03*
X15938499D02*
D03*
X16700500Y8572500D02*
D03*
X16954500D02*
D03*
X16700500Y9207500D02*
D03*
X16764000Y10223500D02*
D03*
X15049500D02*
D03*
X14350999Y7620000D02*
D03*
X15113000D02*
D03*
X15748000Y4572000D02*
D03*
Y4127500D02*
D03*
X16002000Y3238500D02*
D03*
X16510001Y4127500D02*
D03*
Y4572000D02*
D03*
X11747500Y3238500D02*
D03*
X6096000Y7747000D02*
D03*
X5334000D02*
D03*
X3683000Y9715500D02*
D03*
X3429000D02*
D03*
X10414000Y14859000D02*
D03*
X10795000Y13970000D02*
D03*
X11049000D02*
D03*
X12065000Y14859000D02*
D03*
X12446000Y13970000D02*
D03*
X12700000D02*
D03*
X12827000Y14859000D02*
D03*
X13589000D02*
D03*
X13970000Y13970000D02*
D03*
X14224001D02*
D03*
X14350999Y14859000D02*
D03*
X15113000D02*
D03*
X15494000Y13970000D02*
D03*
X15748000D02*
D03*
X15875000Y14859000D02*
D03*
X11176000D02*
D03*
D26*
X3632200Y4165600D02*
D03*
Y5486400D02*
D03*
Y6070600D02*
D03*
Y7137400D02*
D03*
X6045200Y9690100D02*
D03*
X7061200D02*
D03*
X8013700D02*
D03*
X8966200D02*
D03*
X9918700D02*
D03*
X10934700Y10325100D02*
D03*
X11760200Y10566400D02*
D03*
X12649200Y10325100D02*
D03*
X13601700Y10566400D02*
D03*
X14389101Y10147300D02*
D03*
X15455901D02*
D03*
X16103600D02*
D03*
X17170399D02*
D03*
X16040100Y8496300D02*
D03*
X15582899D02*
D03*
X14262100D02*
D03*
X13601700Y8737600D02*
D03*
X11760200D02*
D03*
X9918700Y11264900D02*
D03*
X8966200D02*
D03*
X8013700D02*
D03*
X7061200D02*
D03*
X6045200D02*
D03*
X10134600Y15443201D02*
D03*
X9423400D02*
D03*
X8356600D02*
D03*
X7899400D02*
D03*
X6832600D02*
D03*
X10934700Y11391900D02*
D03*
X12649200D02*
D03*
X16027400Y15443201D02*
D03*
X14960600D02*
D03*
X14503400D02*
D03*
X13436600D02*
D03*
X12979401D02*
D03*
X11912600D02*
D03*
X11455400D02*
D03*
X17360899Y8496300D02*
D03*
X17195799Y5994400D02*
D03*
Y4165600D02*
D03*
D27*
X7556500Y3238500D02*
D03*
X12001500D02*
D03*
X16256000D02*
D03*
X16446500Y8572500D02*
D03*
X16510001Y10223500D02*
D03*
X14795500D02*
D03*
X14668500Y8572500D02*
D03*
X15239999Y13970000D02*
D03*
X13716000D02*
D03*
X12192000D02*
D03*
X10541000D02*
D03*
X3175000Y9715500D02*
D03*
D28*
X5016500Y3175000D02*
D03*
X6540500D02*
D03*
X9461500D02*
D03*
X10985500D02*
D03*
X13716000D02*
D03*
X15239999D02*
D03*
Y7239000D02*
D03*
X13716000D02*
D03*
X10985500D02*
D03*
X9461500D02*
D03*
X6540500D02*
D03*
X5016500D02*
D03*
D29*
X3556000Y4826000D02*
D03*
Y5080000D02*
D03*
X4254500Y5715000D02*
D03*
X3556000Y6731000D02*
D03*
X5016500Y4953000D02*
D03*
Y4699000D02*
D03*
Y4445000D02*
D03*
Y4191000D02*
D03*
Y3937000D02*
D03*
Y3683000D02*
D03*
Y3429000D02*
D03*
X6540500D02*
D03*
Y3683000D02*
D03*
Y3937000D02*
D03*
Y4191000D02*
D03*
Y4445000D02*
D03*
Y4699000D02*
D03*
Y4953000D02*
D03*
Y5207000D02*
D03*
Y5461000D02*
D03*
Y5715000D02*
D03*
Y5969000D02*
D03*
Y6223000D02*
D03*
Y6477000D02*
D03*
Y6731000D02*
D03*
Y6985000D02*
D03*
X5016500Y6731000D02*
D03*
Y6477000D02*
D03*
Y6223000D02*
D03*
Y5969000D02*
D03*
Y5715000D02*
D03*
Y5461000D02*
D03*
Y5207000D02*
D03*
X9461500Y3429000D02*
D03*
Y3683000D02*
D03*
Y3937000D02*
D03*
Y4191000D02*
D03*
Y4445000D02*
D03*
Y4699000D02*
D03*
Y4953000D02*
D03*
Y5207000D02*
D03*
Y5461000D02*
D03*
Y5715000D02*
D03*
Y5969000D02*
D03*
Y6223000D02*
D03*
Y6477000D02*
D03*
Y6731000D02*
D03*
X10985500Y5207000D02*
D03*
Y4953000D02*
D03*
Y4699000D02*
D03*
Y4445000D02*
D03*
Y4191000D02*
D03*
Y3937000D02*
D03*
Y3683000D02*
D03*
Y3429000D02*
D03*
Y5461000D02*
D03*
Y5715000D02*
D03*
Y5969000D02*
D03*
Y6223000D02*
D03*
Y6477000D02*
D03*
Y6731000D02*
D03*
Y6985000D02*
D03*
X11684000Y9398000D02*
D03*
Y9652000D02*
D03*
Y9906000D02*
D03*
Y10160000D02*
D03*
X10858500Y10985500D02*
D03*
X12573000D02*
D03*
X13525500Y9906000D02*
D03*
Y9652000D02*
D03*
Y9398000D02*
D03*
Y10160000D02*
D03*
X15239999Y6985000D02*
D03*
Y6731000D02*
D03*
Y6477000D02*
D03*
Y6223000D02*
D03*
Y5969000D02*
D03*
Y5715000D02*
D03*
Y5461000D02*
D03*
Y5207000D02*
D03*
Y4953000D02*
D03*
Y4699000D02*
D03*
Y4445000D02*
D03*
Y4191000D02*
D03*
Y3937000D02*
D03*
Y3683000D02*
D03*
Y3429000D02*
D03*
X13716000Y4699000D02*
D03*
Y4953000D02*
D03*
Y4445000D02*
D03*
Y4191000D02*
D03*
Y3937000D02*
D03*
Y3683000D02*
D03*
Y3429000D02*
D03*
Y5207000D02*
D03*
Y5461000D02*
D03*
Y5715000D02*
D03*
Y5969000D02*
D03*
Y6223000D02*
D03*
Y6477000D02*
D03*
Y6731000D02*
D03*
X17272000Y4572000D02*
D03*
Y4826000D02*
D03*
Y5080000D02*
D03*
Y5334000D02*
D03*
X5080000Y16128999D02*
D03*
Y15367000D02*
D03*
D30*
X3556000Y4572000D02*
D03*
X4254500Y5461000D02*
D03*
X3556000Y6477000D02*
D03*
X5016500Y6985000D02*
D03*
X9461500D02*
D03*
X11684000Y9144000D02*
D03*
X12573000Y10731500D02*
D03*
X13525500Y9144000D02*
D03*
X13716000Y6985000D02*
D03*
X17272000Y5588000D02*
D03*
X10858500Y10731500D02*
D03*
D31*
X9842500Y10096500D02*
D03*
X8890000D02*
D03*
X7937500D02*
D03*
X6985000D02*
D03*
X5969000D02*
D03*
X3810000Y11811000D02*
D03*
Y13525500D02*
D03*
X10604500Y13017500D02*
D03*
X12319000D02*
D03*
X14033501D02*
D03*
X15748000D02*
D03*
D32*
X9842500Y10350500D02*
D03*
Y10604500D02*
D03*
Y10858500D02*
D03*
X8890000D02*
D03*
Y10604500D02*
D03*
Y10350500D02*
D03*
X7937500Y10858500D02*
D03*
Y10604500D02*
D03*
Y10350500D02*
D03*
X6985000Y10858500D02*
D03*
Y10604500D02*
D03*
Y10350500D02*
D03*
X5969000Y10858500D02*
D03*
Y10604500D02*
D03*
Y10350500D02*
D03*
X3810000Y12763500D02*
D03*
Y11049000D02*
D03*
X5588000Y15176500D02*
D03*
Y15938499D02*
D03*
X10604500Y12255500D02*
D03*
X12319000D02*
D03*
X14033501D02*
D03*
X15748000D02*
D03*
D33*
X6223000Y14605000D02*
D03*
X5715000D02*
D03*
X4699000D02*
D03*
X4191000D02*
D03*
D34*
X9144000Y13081000D02*
D03*
X8890000D02*
D03*
X7620000D02*
D03*
X7366000D02*
D03*
X8763000Y15367000D02*
D03*
X7239000D02*
D03*
X10541000D02*
D03*
X10795000D02*
D03*
X12319000D02*
D03*
X13842999D02*
D03*
X15367000D02*
D03*
D35*
X8636000Y13081000D02*
D03*
X7112000D02*
D03*
X9017000Y15367000D02*
D03*
X7493000D02*
D03*
X11049000D02*
D03*
X12573000D02*
D03*
X14097000D02*
D03*
X15621001D02*
D03*
D36*
X9271000Y13589000D02*
D03*
Y14033501D02*
D03*
Y14478000D02*
D03*
X8509000D02*
D03*
Y14033501D02*
D03*
Y13589000D02*
D03*
X7747000Y14478000D02*
D03*
Y14033501D02*
D03*
Y13589000D02*
D03*
X6985000Y14478000D02*
D03*
Y14033501D02*
D03*
Y13589000D02*
D03*
D37*
X3175000Y3175000D02*
D03*
X17145000D02*
D03*
Y17145000D02*
D03*
X3175000D02*
D03*
D38*
X3558540Y15239999D02*
D03*
Y15750108D02*
D03*
D39*
X7048500Y5207000D02*
D03*
Y5461000D02*
D03*
Y5715000D02*
D03*
Y5969000D02*
D03*
X7810500Y5207000D02*
D03*
Y5461000D02*
D03*
Y5715000D02*
D03*
Y5969000D02*
D03*
X11493500Y5207000D02*
D03*
Y5461000D02*
D03*
Y5715000D02*
D03*
Y5969000D02*
D03*
X12255500Y5207000D02*
D03*
Y5461000D02*
D03*
Y5715000D02*
D03*
Y5969000D02*
D03*
X15748000Y5207000D02*
D03*
Y5461000D02*
D03*
Y5715000D02*
D03*
Y5969000D02*
D03*
X16510001Y5207000D02*
D03*
Y5461000D02*
D03*
Y5715000D02*
D03*
Y5969000D02*
D03*
%TF.MD5,F944CC3C86BD779743B22726DDF83837*%
M02*
