G04 Layer_Physical_Order=1*
G04 Layer_Color=11767835*
%FSLAX45Y45*%
%MOMM*%
%TF.FileFunction,Copper,L1,Top,Signal*%
%TF.Part,Single*%
G01*
G75*
%TA.AperFunction,SMDPad,CuDef*%
%ADD10R,1.52400X1.32080*%
%ADD11R,1.32080X1.52400*%
%ADD12R,1.32080X1.21920*%
%ADD13R,1.10000X1.40000*%
%ADD14R,1.10000X1.70000*%
%ADD15R,1.50000X1.50000*%
%ADD16R,2.30000X2.30000*%
%TA.AperFunction,Conductor*%
%ADD17C,0.88900*%
%ADD18C,0.50800*%
%ADD19C,1.27000*%
%ADD20C,2.03200*%
%ADD21C,2.54000*%
%ADD22C,1.90500*%
%ADD23C,3.04800*%
%TA.AperFunction,NonConductor*%
%ADD24C,0.25400*%
%TA.AperFunction,ComponentPad*%
%ADD25O,1.90500X3.55600*%
%ADD26C,3.40360*%
%ADD27R,1.90500X3.55600*%
%ADD28C,1.65100*%
%ADD29O,3.55600X1.90500*%
%ADD30R,3.55600X1.90500*%
%ADD31R,3.30200X1.90500*%
%ADD32O,3.30200X1.90500*%
%ADD33O,1.90500X3.58140*%
%ADD34O,1.90500X3.30200*%
%ADD35R,1.90500X3.30200*%
%ADD36O,3.55600X1.90500*%
%TA.AperFunction,ViaPad*%
%ADD37C,6.35000*%
%TA.AperFunction,ComponentPad*%
%ADD38O,3.55600X2.54000*%
%ADD39O,3.04800X1.90500*%
D10*
X7747000Y7217501D02*
D03*
Y7388860D02*
D03*
X12192000D02*
D03*
Y7217501D02*
D03*
X16510001D02*
D03*
Y7388860D02*
D03*
X8890000Y12214860D02*
D03*
Y12043501D02*
D03*
D11*
X4422140Y8763000D02*
D03*
X4593499D02*
D03*
X5057140Y10858500D02*
D03*
X5228499D02*
D03*
Y12065000D02*
D03*
X5057140D02*
D03*
D12*
X7003999Y7137502D02*
D03*
Y7467600D02*
D03*
X7475220D02*
D03*
Y7137502D02*
D03*
X5379720Y10185502D02*
D03*
Y10515600D02*
D03*
X4908499D02*
D03*
Y10185502D02*
D03*
X5379720Y11392002D02*
D03*
Y11722100D02*
D03*
X4908499D02*
D03*
Y11392002D02*
D03*
X4273499Y8356600D02*
D03*
Y8026502D02*
D03*
X4744720D02*
D03*
Y8356600D02*
D03*
X9162999Y11963502D02*
D03*
Y12293600D02*
D03*
X9634220Y11963502D02*
D03*
Y12293600D02*
D03*
X11448999Y7467600D02*
D03*
Y7137502D02*
D03*
X11920220D02*
D03*
Y7467600D02*
D03*
X15766998D02*
D03*
Y7137502D02*
D03*
X16238220D02*
D03*
Y7467600D02*
D03*
D13*
X14299001Y14478000D02*
D03*
X14148999D02*
D03*
X13791000D02*
D03*
X13640999D02*
D03*
X12775001D02*
D03*
X12624999D02*
D03*
X12267001D02*
D03*
X12116999D02*
D03*
X11124001D02*
D03*
X10973999D02*
D03*
X10616001D02*
D03*
X10465999D02*
D03*
X15164999D02*
D03*
X15315001D02*
D03*
X15673000D02*
D03*
X15823001D02*
D03*
D14*
X3611499Y9080500D02*
D03*
X3881501D02*
D03*
X3183001D02*
D03*
X2912999D02*
D03*
D15*
X15669000Y16128999D02*
D03*
X15318999D02*
D03*
X14145001D02*
D03*
X13795000D02*
D03*
X12621001D02*
D03*
X12270999D02*
D03*
X10970001D02*
D03*
X10619999D02*
D03*
X9065001D02*
D03*
X8714999D02*
D03*
X7541001D02*
D03*
X7190999D02*
D03*
X6398001D02*
D03*
X6047999D02*
D03*
X4683501D02*
D03*
X4333499D02*
D03*
D16*
X9114998Y14859000D02*
D03*
X8665002D02*
D03*
X7590998D02*
D03*
X7141002D02*
D03*
D17*
X4879340Y2994660D02*
X5534660D01*
X5778500Y3238500D01*
Y6413500D01*
X6096000Y6731000D01*
X6540500D01*
X7315200Y7312660D02*
X7571740D01*
X7647940Y7388860D01*
X7747000D01*
X7907020D01*
Y5969000D01*
X7810500D01*
Y5715000D01*
Y5461000D01*
Y5207000D01*
X7315200Y7312660D02*
X7160260Y7467600D01*
X7003999D01*
X4635500Y5588000D02*
Y3238500D01*
X4879340Y2994660D01*
X4635500Y5588000D02*
X4508500Y5715000D01*
X4254500D01*
Y6799580D01*
X4112260Y6941820D01*
Y8109001D01*
X4273499Y8270240D01*
Y8356600D01*
X4422140D01*
Y8763000D01*
X4127500D01*
X3881501Y9080500D02*
Y9199499D01*
X3683000Y9398000D01*
Y9715500D01*
X3429000Y9080500D02*
X3611499D01*
X3429000D02*
X3397250D01*
X3183001D01*
X2912999D02*
Y9084818D01*
X3175000Y9346819D01*
Y9715500D01*
X4908499Y10515600D02*
Y10612120D01*
X5057140Y10760761D01*
Y10858500D01*
X4937760D01*
X4747260Y11049000D01*
Y11475720D01*
X4908499Y11636959D01*
Y11722100D01*
Y11818620D01*
X5057140Y11967261D01*
Y12065000D01*
Y12722860D01*
X5016500Y12763500D01*
X6383020Y12621260D02*
X7112000D01*
X7366000Y12875259D01*
Y13081000D01*
Y14224001D01*
X7482840Y14340840D01*
Y14628922D01*
X7590998Y14737080D01*
Y14859000D01*
X7141002D02*
X6286500D01*
X6223000Y14795500D02*
Y14605000D01*
X6985000Y14033501D02*
Y13589000D01*
X7112000Y13398500D01*
Y13081000D01*
X7620000D02*
Y13589000D01*
X7747000D01*
X8509000D02*
X8636000Y13398500D01*
Y13081000D01*
X8890000D02*
Y14661449D01*
X8917447D01*
X9114998Y14859000D01*
X8890000Y14661449D01*
X8467451D01*
Y15056551D01*
X8682944D01*
X8763000Y15136607D01*
Y15367000D01*
X9017000Y15210999D02*
Y15367000D01*
Y15210999D02*
X8665002Y14859000D01*
X8509000Y14033501D02*
Y13589000D01*
X9144000Y13081000D02*
Y13589000D01*
X9271000D01*
X9144000Y13081000D02*
Y12706299D01*
X9162999Y12293600D01*
X9065260D01*
X8986520Y12214860D01*
X8890000D01*
X10541000Y13970000D02*
Y14226540D01*
X10465999Y14301541D01*
Y14478000D01*
X10616001D02*
X10731500D01*
X10973999D01*
X11049000Y14226540D02*
X11124001Y14301541D01*
Y14478000D01*
X11049000Y14226540D02*
Y13970000D01*
X10414000Y14813280D02*
Y14859000D01*
X10414259Y16334740D02*
X10619999Y16128999D01*
X10414259Y16334740D02*
X8920739D01*
X8714999Y16128999D01*
X8397499Y16446500D01*
X7508499D01*
X7190999Y16128999D01*
X6873499Y16446500D01*
X6365499D01*
X6047999Y16128999D01*
X5730499Y16446500D01*
X4650999D01*
X4333499Y16128999D01*
X5339080Y15270480D02*
X5765800Y15697200D01*
X7112000D01*
X7239000Y15570200D01*
Y15367000D01*
X5339080Y15270480D02*
Y13665199D01*
X6383020Y12621260D01*
X11448999Y7467600D02*
X11658600D01*
X11684000Y7493000D01*
Y7620000D01*
X11747500Y7683500D01*
X11890375D01*
X12128500D01*
X12192000Y7620000D01*
Y7388860D01*
X11684000Y7493000D02*
Y6985000D01*
X11430000Y6731000D01*
X10985500D01*
X12255500Y5207000D02*
Y5461000D01*
Y5715000D01*
Y5969000D01*
X14935201Y6794500D02*
Y8077200D01*
Y8097520D02*
X15176500Y8338820D01*
Y8572500D01*
Y9712960D01*
X15049500Y9839960D01*
Y10223500D01*
Y11938000D01*
X15367000Y12255500D01*
X15748000D01*
Y13970000D02*
Y14226540D01*
X15823001Y14301541D01*
Y14478000D01*
Y14493240D01*
X15673000Y14478000D02*
X15430499D01*
X15494000Y14414500D01*
Y13970000D01*
X15430499Y14478000D02*
X15315001D01*
X15113000Y14798039D02*
Y14859000D01*
X15164999Y14478000D02*
Y14301541D01*
X15239999Y14226540D01*
Y13970000D01*
X14299001Y14301541D02*
Y14478000D01*
Y14301541D02*
X14224001Y14226540D01*
Y13970000D01*
X14148999Y14478000D02*
X13906500D01*
X13970000Y14414500D01*
X13906500Y14478000D02*
X13791000D01*
X13640999D02*
Y14301541D01*
X13716000Y14226540D01*
Y13970000D01*
X13589000Y14777721D02*
Y14859000D01*
X12775001Y14478000D02*
Y14301541D01*
X12700000Y14226540D01*
Y13970000D01*
X12624999Y14478000D02*
X12382500D01*
X12267001D01*
X12116999D02*
Y14301541D01*
X12192000Y14226540D01*
Y13970000D01*
X12319000Y12255500D02*
Y11049000D01*
X12382500Y10985500D01*
X12573000D01*
X13967461Y13017500D02*
X14033501D01*
X16954500Y8572500D02*
Y7980680D01*
X16510001Y7536180D01*
Y7556500D01*
X16383000Y7683500D01*
X15875000D01*
X15766998Y7575499D01*
X15811501Y7620000D01*
X15156180Y8275320D01*
X15133321D01*
X14935201Y8097520D02*
Y6794500D01*
X14998700Y6731000D01*
X15239999D01*
X15766998Y7467600D02*
Y7575499D01*
X16510001Y7388860D02*
Y7536180D01*
Y5969000D02*
Y5715000D01*
Y5461000D01*
Y5207000D01*
D18*
X4264660Y3192780D02*
X4572000Y2885440D01*
X7393940D01*
X7556500Y3048000D01*
X7698740Y2905760D01*
X11907520D01*
X12001500Y2999740D01*
Y3238500D01*
X12128500Y3619500D02*
X12842239Y2905760D01*
X15194279D01*
X15587981Y3299460D01*
Y4348480D01*
X15748000Y4406900D01*
Y4572000D01*
Y4826000D01*
X16128999Y5207000D01*
Y6002020D01*
X16349980Y6223000D01*
X16636726D01*
X17104086Y5755640D01*
X17485361D01*
X17525999Y5715000D01*
Y5143500D01*
X17462500Y5080000D01*
X17272000D01*
Y5334000D02*
X17081500D01*
X16637000Y4889500D01*
X16299181D01*
X16128999Y4719320D01*
Y4447540D01*
X15882620Y4201160D01*
X15748000D01*
Y4127500D01*
X15430499Y4445000D02*
X15494000Y4508500D01*
Y5143500D01*
X15557500Y5207000D01*
X15748000D01*
X15430499Y4445000D02*
X15239999D01*
Y4953000D02*
X14986000D01*
X14605000Y4572000D01*
Y3302000D01*
X14305280Y3002280D01*
X13380721D01*
X11430000Y4953000D01*
X10985500D01*
Y5207000D02*
X10731500D01*
X10604500Y5080000D01*
Y3304540D01*
X10909300Y2999740D01*
X11064240D01*
X11684000Y3619500D01*
X12128500D01*
X12573000Y4064000D02*
X13208000Y3429000D01*
X13716000D01*
Y3683000D02*
X13271500D01*
X12700000Y4254500D01*
Y8636000D01*
X11938000Y9398000D01*
X11684000D01*
Y9144000D02*
X12001500D01*
X12573000Y8572500D01*
Y4064000D01*
X12827000Y4445000D02*
X13335001Y3937000D01*
X13716000D01*
Y4191000D02*
X13398500D01*
X12953999Y4635500D01*
Y8890000D01*
X11938000Y9906000D01*
X11684000D01*
Y9652000D02*
X11927840D01*
X12827000Y8752840D01*
Y4445000D01*
X13462000D02*
X13716000D01*
X13970000Y4953000D02*
X14350999Y5334000D01*
Y7620000D01*
X15113000D02*
Y7538720D01*
X15219781D01*
X15621001Y7137502D01*
X15766998D01*
X16238220Y7012940D02*
Y7137502D01*
X16293999D01*
X16383000Y7048500D01*
X16510001D01*
X16700500D01*
X17614900Y6134100D01*
Y4592320D01*
X17426939Y4404360D01*
X16789400D01*
X16621761Y4572000D01*
X16510001D01*
Y4127500D01*
X15448280Y6223000D02*
X16238220Y7012940D01*
X16510001Y7048500D02*
Y7217501D01*
X16764000D01*
X17114520Y7568021D01*
Y9237980D01*
X16764000Y9588500D01*
X16256000D01*
Y9682480D01*
X16510001Y9936480D01*
Y10223500D01*
X16256000Y9588500D02*
X15938499Y9271000D01*
Y9207500D01*
X16128999D01*
X16446500Y8890000D01*
Y8572500D01*
X16700500D02*
Y9207500D01*
X14795500Y10030460D02*
Y10223500D01*
Y10030460D02*
X14478000Y9712960D01*
X14475459D01*
X14160500Y9398000D01*
Y9207500D01*
X14350999D01*
X14668500Y8890000D01*
Y8572500D01*
X14922501D02*
Y9207500D01*
X13835381Y10033000D02*
Y8501380D01*
X13335001Y8001000D01*
Y6096000D01*
X13462000Y5969000D01*
X13716000D01*
Y5207000D02*
X13936980D01*
X14000481Y5270500D01*
Y10637520D01*
X13837920Y10800080D01*
X13340080D01*
X13271500Y10731500D01*
Y9461500D01*
X13335001Y9398000D01*
X13525500D01*
Y9144000D02*
X13335001D01*
X13208000Y9017000D01*
Y4953000D01*
X13462000Y4699000D01*
X13716000D01*
Y4953000D02*
X13970000D01*
X13462000Y4445000D02*
X13081000Y4826000D01*
Y9080500D01*
X12001500Y10160000D01*
X11684000D01*
X12158980Y10731500D02*
X12573000D01*
X12158980D02*
X12090400Y10800080D01*
X11526520D01*
X11457940Y10731500D01*
X10858500D01*
X10160000Y10096500D02*
X10541000Y9715500D01*
Y6434176D01*
X10752176Y6223000D01*
X10985500D01*
X11539220D01*
X11920220Y6604000D01*
Y7137502D01*
X12014200D01*
X12094200Y7217501D01*
X12192000D01*
X11448999Y7137502D02*
X11303000D01*
X11224260Y7216242D01*
Y7366000D01*
X11051540Y7538720D01*
X10858500D01*
Y7620000D01*
X10096500D02*
Y5334000D01*
X9715500Y4953000D01*
X9461500D01*
Y4699000D02*
X9080500D01*
X8890000Y4889500D01*
Y9157686D01*
X8412480Y9635206D01*
Y10320020D01*
X8128000Y10604500D01*
X7937500D01*
Y10350500D02*
X8128000D01*
X8255000Y10223500D01*
Y9588500D01*
X8763000Y9080500D01*
Y4699000D01*
X9017000Y4445000D01*
X9461500D01*
Y4191000D02*
X8953500D01*
X8636000Y4508500D01*
Y9017000D01*
X8196580Y9456420D01*
X7843520D01*
X7556500Y9743440D01*
Y10287000D01*
X7239000Y10604500D01*
X6985000D01*
Y10350500D02*
X7269480D01*
X7459980Y10160000D01*
Y9652000D01*
X7744460Y9367520D01*
X8094980D01*
X8509000Y8953500D01*
Y4318000D01*
X8890000Y3937000D01*
X9461500D01*
Y3683000D02*
X8826500D01*
X8382000Y4127500D01*
Y8862060D01*
X8034020Y9210040D01*
X6855460D01*
X6540500Y9525000D01*
Y10287000D01*
X6223000Y10604500D01*
X5969000D01*
Y10350500D02*
X6223000D01*
X6413500Y10160000D01*
Y9461500D01*
X6794500Y9080500D01*
X7937500D01*
X8255000Y8763000D01*
Y3937000D01*
X8763000Y3429000D01*
X9461500D01*
X8938260Y2999740D02*
X10909300D01*
X8938260D02*
X6731000Y5207000D01*
X6540500D01*
X7475220Y5161280D02*
X7625080Y5011420D01*
X7967980D01*
X8036560Y5080000D01*
Y7442200D01*
X6144260Y9334500D01*
X5778500D01*
X5379720Y9733280D01*
Y10185502D01*
Y10279380D01*
X5228499Y10430601D01*
Y10858500D01*
X5379720Y10515600D02*
Y11069422D01*
X5057140Y11392002D01*
X4908499D01*
X5228499Y11637101D02*
X5379720Y11485880D01*
Y11392002D01*
Y11242040D01*
X5509260Y11112500D01*
Y10185502D01*
X5379720D01*
X4908499D02*
X4826000D01*
X4744720Y10104222D01*
Y8356600D01*
X4673600Y8191500D02*
X6985000D01*
X7475220Y7701280D01*
Y7467600D01*
Y7137502D02*
X7569200D01*
X7649200Y7217501D01*
X7747000D01*
X7475220Y7137502D02*
X7236358D01*
X7071360Y7302500D01*
X6913880D01*
X6189878Y8026502D01*
X4744720D01*
X5334000Y7747000D02*
Y5080000D01*
X5207000Y4953000D01*
X5016500D01*
X4264660Y4772660D02*
Y3192780D01*
Y4772660D02*
X3797300Y5240020D01*
X3492500D01*
X3398520Y5334000D01*
Y6477000D01*
X3556000D01*
X4273499Y8026502D02*
X4508602D01*
X4673600Y8191500D01*
X6096000Y7747000D02*
Y7620000D01*
X6205220Y7510780D01*
X6484722D01*
X6858000Y7137502D01*
X7003999D01*
X6540500Y6477000D02*
X6299200D01*
Y3141980D01*
X6413500Y3027680D01*
X7155180D01*
X7302500Y3175000D01*
Y3238500D01*
X7556500Y3048000D02*
Y3238500D01*
X9461500Y5207000D02*
X9207500D01*
X9017000Y5397500D01*
Y9202420D01*
X8597900Y9621520D01*
Y10287000D01*
X8661400Y10350500D01*
X8890000D01*
Y10604500D02*
X9080500D01*
X9271000Y10414000D01*
Y9334500D01*
X9144000Y9207500D01*
Y5582920D01*
X9265920Y5461000D01*
X9461500D01*
X9664700Y5715000D02*
X9906000Y5956300D01*
Y9080500D01*
X9588500Y9398000D01*
Y10287000D01*
X9652000Y10350500D01*
X9842500D01*
Y10604500D02*
X9652000D01*
X9461500Y10414000D01*
Y9334500D01*
X9779000Y9017000D01*
Y6098540D01*
X9649460Y5969000D01*
X9461500D01*
Y5715000D02*
X9664700D01*
X7475220Y7137502D02*
Y6586220D01*
Y5161280D01*
X7112000Y6223000D02*
X7475220Y6586220D01*
X7112000Y6223000D02*
X6540500D01*
X10160000Y10096500D02*
X9842500D01*
X9017000Y11722100D02*
X9162999Y11868099D01*
Y11963502D01*
X8995501Y12043501D02*
X9052560Y12100560D01*
X9329522D01*
X9466580Y11963502D01*
X9634220D01*
Y12293600D02*
Y12415520D01*
X9715500Y12496800D01*
X10807700D01*
X11244580Y12933681D01*
Y14612621D01*
X10922000D01*
X10795000Y14739619D01*
Y15367000D01*
X11176000Y15077440D02*
X11219180Y15120621D01*
Y15879820D01*
X10970001Y16128999D01*
X11176000Y15077440D02*
Y14859000D01*
X12733020Y15252699D02*
X12827000Y15158720D01*
Y14859000D01*
X12733020Y15252699D02*
Y16016982D01*
X12621001Y16128999D01*
X14145001D02*
X14257021Y16016982D01*
Y15252699D01*
X14350999Y15158720D01*
Y14859000D01*
X15875000D02*
Y14872914D01*
Y14859000D02*
Y14795500D01*
X16319501Y15239999D01*
Y15811501D01*
X16002000Y16128999D01*
X15669000D01*
X13708380Y10160000D02*
X13835381Y10033000D01*
X13708380Y10160000D02*
X13525500D01*
X15239999Y6223000D02*
X15448280D01*
X8995501Y12043501D02*
X8890000D01*
X8720999D01*
X8699500Y12065000D01*
X5228499D01*
Y11637101D01*
X5379720Y11722100D02*
X9017000D01*
X9271000Y14033501D02*
Y14478000D01*
X8597900Y15351759D02*
Y15661899D01*
X9065001Y16128999D01*
X8597900Y15351759D02*
X8359140Y15113000D01*
Y14478000D01*
X8509000D01*
X7653020Y15138400D02*
Y16016982D01*
X7541001Y16128999D01*
X7366000Y15011400D02*
X7493000Y15138400D01*
X7653020D01*
X7366000Y15011400D02*
Y14605000D01*
X7239000Y14478000D01*
X6985000D01*
X7747000Y14033501D02*
Y14478000D01*
X6207501Y15938499D02*
X6398001Y16128999D01*
X6207501Y15938499D02*
X5588000D01*
X5080000Y16128999D02*
X4683501D01*
D19*
X3683000Y9715500D02*
Y10383520D01*
X3492500Y10574020D01*
Y11242040D01*
X3810000Y11559540D01*
Y11811000D01*
X10160000Y13208000D02*
X10350500Y13017500D01*
X10604500D01*
X10896336D01*
X11049000Y13170164D01*
Y13970000D01*
X10795000Y14414500D02*
Y13970000D01*
Y14414500D02*
X10731500Y14478000D01*
X10414000Y14813280D02*
X10160000Y14559280D01*
Y13208000D01*
X10616001Y14478000D02*
X10668000Y14529999D01*
Y15053381D01*
X10541000Y15180380D01*
Y15367000D01*
Y16050002D01*
X10619999Y16128999D01*
X12319000Y14541499D02*
Y15367000D01*
X12270999Y15796001D01*
Y16128999D01*
X13589000Y14777721D02*
X13398500Y14587219D01*
Y13586459D01*
X13967461Y13017500D01*
X15113000Y13589000D02*
X15569000D01*
X15748000Y13767999D01*
Y13970000D01*
Y13767999D02*
Y13525500D01*
Y13017500D01*
X15113000Y13589000D02*
X14795500Y13906500D01*
Y14480540D01*
X15113000Y14798039D01*
X15315001Y14478000D02*
X15357288Y14512270D01*
X15367000Y14605000D01*
Y15367000D01*
X15318999Y15796001D01*
Y16128999D01*
X13970000Y14414500D02*
Y13970000D01*
X13842999Y14520139D02*
Y15367000D01*
X13795000Y15796001D01*
Y16128999D01*
X12382500Y14478000D02*
X12446000Y14414500D01*
Y13970000D01*
X12700000D02*
Y13144501D01*
X12573000Y13017500D01*
X12319000D01*
X13791000Y14478000D02*
X13842999Y14520139D01*
X12316557Y14518156D02*
X12319000Y14541499D01*
X12316557Y14518156D02*
X12267001Y14478000D01*
D20*
X4127500Y8763000D02*
Y10414000D01*
X3810000Y10731500D01*
Y11049000D01*
X3995420D01*
X4318000Y11371580D01*
Y12440920D01*
X3995420Y12763500D01*
X5016500D01*
X5715000D01*
X6159500Y12319000D01*
X7302500D01*
X7620000Y12636500D01*
Y13081000D01*
X3810000Y13525500D02*
X3492500D01*
X3175000Y13208000D01*
Y9715500D01*
X3429000D02*
Y9080500D01*
X3397250D02*
Y8921750D01*
X3556000Y8763000D01*
X4127500D01*
D21*
X3995420Y12763500D02*
X3810000D01*
X4191000Y14605000D02*
Y14922501D01*
X3873500Y15239999D01*
X3558540D01*
D22*
X6223000Y14795500D02*
X6286500Y14859000D01*
D23*
X5080000Y13779500D02*
Y15367000D01*
X3810000Y13525500D02*
X4826000D01*
X5080000Y13779500D01*
D24*
X2857500Y2540000D02*
X17525999D01*
X17780000Y2794000D01*
Y17525999D01*
X17525999Y17780000D01*
X2730500D01*
X2540000Y17589500D01*
Y2857500D01*
X2857500Y2540000D01*
D25*
X7302500Y3238500D02*
D03*
X10858500Y7620000D02*
D03*
X10096500D02*
D03*
X14160500Y9207500D02*
D03*
X14922501Y8572500D02*
D03*
X15176500D02*
D03*
X14922501Y9207500D02*
D03*
X15938499D02*
D03*
X16700500Y8572500D02*
D03*
X16954500D02*
D03*
X16700500Y9207500D02*
D03*
X16764000Y10223500D02*
D03*
X15049500D02*
D03*
X14350999Y7620000D02*
D03*
X15113000D02*
D03*
X15748000Y4572000D02*
D03*
Y4127500D02*
D03*
X16002000Y3238500D02*
D03*
X16510001Y4127500D02*
D03*
Y4572000D02*
D03*
X11747500Y3238500D02*
D03*
X6096000Y7747000D02*
D03*
X5334000D02*
D03*
X3683000Y9715500D02*
D03*
X3429000D02*
D03*
X10414000Y14859000D02*
D03*
X10795000Y13970000D02*
D03*
X11049000D02*
D03*
X12065000Y14859000D02*
D03*
X12446000Y13970000D02*
D03*
X12700000D02*
D03*
X12827000Y14859000D02*
D03*
X13589000D02*
D03*
X13970000Y13970000D02*
D03*
X14224001D02*
D03*
X14350999Y14859000D02*
D03*
X15113000D02*
D03*
X15494000Y13970000D02*
D03*
X15748000D02*
D03*
X15875000Y14859000D02*
D03*
X11176000D02*
D03*
D26*
X3632200Y4165600D02*
D03*
Y5486400D02*
D03*
Y6070600D02*
D03*
Y7137400D02*
D03*
X6045200Y9690100D02*
D03*
X7061200D02*
D03*
X8013700D02*
D03*
X8966200D02*
D03*
X9918700D02*
D03*
X10934700Y10325100D02*
D03*
X11760200Y10566400D02*
D03*
X12649200Y10325100D02*
D03*
X13601700Y10566400D02*
D03*
X14389101Y10147300D02*
D03*
X15455901D02*
D03*
X16103600D02*
D03*
X17170399D02*
D03*
X16040100Y8496300D02*
D03*
X15582899D02*
D03*
X14262100D02*
D03*
X13601700Y8737600D02*
D03*
X11760200D02*
D03*
X9918700Y11264900D02*
D03*
X8966200D02*
D03*
X8013700D02*
D03*
X7061200D02*
D03*
X6045200D02*
D03*
X10134600Y15443201D02*
D03*
X9423400D02*
D03*
X8356600D02*
D03*
X7899400D02*
D03*
X6832600D02*
D03*
X10934700Y11391900D02*
D03*
X12649200D02*
D03*
X16027400Y15443201D02*
D03*
X14960600D02*
D03*
X14503400D02*
D03*
X13436600D02*
D03*
X12979401D02*
D03*
X11912600D02*
D03*
X11455400D02*
D03*
X17360899Y8496300D02*
D03*
X17195799Y5994400D02*
D03*
Y4165600D02*
D03*
D27*
X7556500Y3238500D02*
D03*
X12001500D02*
D03*
X16256000D02*
D03*
X16446500Y8572500D02*
D03*
X16510001Y10223500D02*
D03*
X14795500D02*
D03*
X14668500Y8572500D02*
D03*
X15239999Y13970000D02*
D03*
X13716000D02*
D03*
X12192000D02*
D03*
X10541000D02*
D03*
X3175000Y9715500D02*
D03*
D28*
X5016500Y3175000D02*
D03*
X6540500D02*
D03*
X9461500D02*
D03*
X10985500D02*
D03*
X13716000D02*
D03*
X15239999D02*
D03*
Y7239000D02*
D03*
X13716000D02*
D03*
X10985500D02*
D03*
X9461500D02*
D03*
X6540500D02*
D03*
X5016500D02*
D03*
D29*
X3556000Y4826000D02*
D03*
Y5080000D02*
D03*
X4254500Y5715000D02*
D03*
X3556000Y6731000D02*
D03*
X5016500Y4953000D02*
D03*
Y4699000D02*
D03*
Y4445000D02*
D03*
Y4191000D02*
D03*
Y3937000D02*
D03*
Y3683000D02*
D03*
Y3429000D02*
D03*
X6540500D02*
D03*
Y3683000D02*
D03*
Y3937000D02*
D03*
Y4191000D02*
D03*
Y4445000D02*
D03*
Y4699000D02*
D03*
Y4953000D02*
D03*
Y5207000D02*
D03*
Y5461000D02*
D03*
Y5715000D02*
D03*
Y5969000D02*
D03*
Y6223000D02*
D03*
Y6477000D02*
D03*
Y6731000D02*
D03*
Y6985000D02*
D03*
X5016500Y6731000D02*
D03*
Y6477000D02*
D03*
Y6223000D02*
D03*
Y5969000D02*
D03*
Y5715000D02*
D03*
Y5461000D02*
D03*
Y5207000D02*
D03*
X9461500Y3429000D02*
D03*
Y3683000D02*
D03*
Y3937000D02*
D03*
Y4191000D02*
D03*
Y4445000D02*
D03*
Y4699000D02*
D03*
Y4953000D02*
D03*
Y5207000D02*
D03*
Y5461000D02*
D03*
Y5715000D02*
D03*
Y5969000D02*
D03*
Y6223000D02*
D03*
Y6477000D02*
D03*
Y6731000D02*
D03*
X10985500Y5207000D02*
D03*
Y4953000D02*
D03*
Y4699000D02*
D03*
Y4445000D02*
D03*
Y4191000D02*
D03*
Y3937000D02*
D03*
Y3683000D02*
D03*
Y3429000D02*
D03*
Y5461000D02*
D03*
Y5715000D02*
D03*
Y5969000D02*
D03*
Y6223000D02*
D03*
Y6477000D02*
D03*
Y6731000D02*
D03*
Y6985000D02*
D03*
X11684000Y9398000D02*
D03*
Y9652000D02*
D03*
Y9906000D02*
D03*
Y10160000D02*
D03*
X10858500Y10985500D02*
D03*
X12573000D02*
D03*
X13525500Y9906000D02*
D03*
Y9652000D02*
D03*
Y9398000D02*
D03*
Y10160000D02*
D03*
X15239999Y6985000D02*
D03*
Y6731000D02*
D03*
Y6477000D02*
D03*
Y6223000D02*
D03*
Y5969000D02*
D03*
Y5715000D02*
D03*
Y5461000D02*
D03*
Y5207000D02*
D03*
Y4953000D02*
D03*
Y4699000D02*
D03*
Y4445000D02*
D03*
Y4191000D02*
D03*
Y3937000D02*
D03*
Y3683000D02*
D03*
Y3429000D02*
D03*
X13716000Y4699000D02*
D03*
Y4953000D02*
D03*
Y4445000D02*
D03*
Y4191000D02*
D03*
Y3937000D02*
D03*
Y3683000D02*
D03*
Y3429000D02*
D03*
Y5207000D02*
D03*
Y5461000D02*
D03*
Y5715000D02*
D03*
Y5969000D02*
D03*
Y6223000D02*
D03*
Y6477000D02*
D03*
Y6731000D02*
D03*
X17272000Y4572000D02*
D03*
Y4826000D02*
D03*
Y5080000D02*
D03*
Y5334000D02*
D03*
X5080000Y16128999D02*
D03*
Y15367000D02*
D03*
D30*
X3556000Y4572000D02*
D03*
X4254500Y5461000D02*
D03*
X3556000Y6477000D02*
D03*
X5016500Y6985000D02*
D03*
X9461500D02*
D03*
X11684000Y9144000D02*
D03*
X12573000Y10731500D02*
D03*
X13525500Y9144000D02*
D03*
X13716000Y6985000D02*
D03*
X17272000Y5588000D02*
D03*
X10858500Y10731500D02*
D03*
D31*
X9842500Y10096500D02*
D03*
X8890000D02*
D03*
X7937500D02*
D03*
X6985000D02*
D03*
X5969000D02*
D03*
X3810000Y11811000D02*
D03*
Y13525500D02*
D03*
X10604500Y13017500D02*
D03*
X12319000D02*
D03*
X14033501D02*
D03*
X15748000D02*
D03*
D32*
X9842500Y10350500D02*
D03*
Y10604500D02*
D03*
Y10858500D02*
D03*
X8890000D02*
D03*
Y10604500D02*
D03*
Y10350500D02*
D03*
X7937500Y10858500D02*
D03*
Y10604500D02*
D03*
Y10350500D02*
D03*
X6985000Y10858500D02*
D03*
Y10604500D02*
D03*
Y10350500D02*
D03*
X5969000Y10858500D02*
D03*
Y10604500D02*
D03*
Y10350500D02*
D03*
X3810000Y12763500D02*
D03*
Y11049000D02*
D03*
X5588000Y15176500D02*
D03*
Y15938499D02*
D03*
X10604500Y12255500D02*
D03*
X12319000D02*
D03*
X14033501D02*
D03*
X15748000D02*
D03*
D33*
X6223000Y14605000D02*
D03*
X5715000D02*
D03*
X4699000D02*
D03*
X4191000D02*
D03*
D34*
X9144000Y13081000D02*
D03*
X8890000D02*
D03*
X7620000D02*
D03*
X7366000D02*
D03*
X8763000Y15367000D02*
D03*
X7239000D02*
D03*
X10541000D02*
D03*
X10795000D02*
D03*
X12319000D02*
D03*
X13842999D02*
D03*
X15367000D02*
D03*
D35*
X8636000Y13081000D02*
D03*
X7112000D02*
D03*
X9017000Y15367000D02*
D03*
X7493000D02*
D03*
X11049000D02*
D03*
X12573000D02*
D03*
X14097000D02*
D03*
X15621001D02*
D03*
D36*
X9271000Y13589000D02*
D03*
Y14033501D02*
D03*
Y14478000D02*
D03*
X8509000D02*
D03*
Y14033501D02*
D03*
Y13589000D02*
D03*
X7747000Y14478000D02*
D03*
Y14033501D02*
D03*
Y13589000D02*
D03*
X6985000Y14478000D02*
D03*
Y14033501D02*
D03*
Y13589000D02*
D03*
D37*
X3175000Y3175000D02*
D03*
X17145000D02*
D03*
Y17145000D02*
D03*
X3175000D02*
D03*
D38*
X3558540Y15239999D02*
D03*
Y15750108D02*
D03*
D39*
X7048500Y5207000D02*
D03*
Y5461000D02*
D03*
Y5715000D02*
D03*
Y5969000D02*
D03*
X7810500Y5207000D02*
D03*
Y5461000D02*
D03*
Y5715000D02*
D03*
Y5969000D02*
D03*
X11493500Y5207000D02*
D03*
Y5461000D02*
D03*
Y5715000D02*
D03*
Y5969000D02*
D03*
X12255500Y5207000D02*
D03*
Y5461000D02*
D03*
Y5715000D02*
D03*
Y5969000D02*
D03*
X15748000Y5207000D02*
D03*
Y5461000D02*
D03*
Y5715000D02*
D03*
Y5969000D02*
D03*
X16510001Y5207000D02*
D03*
Y5461000D02*
D03*
Y5715000D02*
D03*
Y5969000D02*
D03*
%TF.MD5,E984ADDE62D23F5FF7199DF7B9766692*%
M02*
