G04 Layer_Color=128*
%FSLAX45Y45*%
%MOMM*%
%TF.FileFunction,Drillmap*%
%TF.Part,Single*%
G01*
G75*
%TA.AperFunction,NonConductor*%
%ADD41C,0.12700*%
D41*
X3016250Y3175000D02*
X3333750D01*
X3175000Y3333750D02*
Y3016250D01*
X3632200Y3995420D02*
Y4335780D01*
X3606800Y4572000D02*
X3505200D01*
X3556000Y4521200D02*
Y4622800D01*
X3462020Y4165600D02*
X3802380D01*
X3606800Y4826000D02*
X3505200D01*
X3556000Y4775200D02*
Y4876800D01*
X3606800Y5080000D02*
X3505200D01*
X3556000Y5029200D02*
Y5130800D01*
X3632200Y5316220D02*
Y5656580D01*
X3802380Y5486400D02*
X3462020D01*
X3632200Y5900420D02*
Y6240780D01*
X3802380Y6070600D02*
X3462020D01*
X3606800Y6477000D02*
X3505200D01*
X3556000Y6426200D02*
Y6527800D01*
Y6680200D02*
Y6781800D01*
X3505200Y6731000D02*
X3606800D01*
X3632200Y6967220D02*
Y7307580D01*
X3802380Y7137400D02*
X3462020D01*
X4203700Y5715000D02*
X4305300D01*
Y5461000D02*
X4203700D01*
X4254500Y5410200D02*
Y5511800D01*
Y5664200D02*
Y5765800D01*
X4965700Y5207000D02*
X5067300D01*
X5016500Y5156200D02*
Y5257800D01*
Y5003800D02*
Y4902200D01*
X5067300Y4953000D02*
X4965700D01*
Y4699000D02*
X5067300D01*
X5016500Y4648200D02*
Y4749800D01*
Y4495800D02*
Y4394200D01*
X5067300Y4445000D02*
X4965700D01*
Y4191000D02*
X5067300D01*
X5016500Y4140200D02*
Y4241800D01*
Y3987800D02*
Y3886200D01*
Y3733800D02*
Y3632200D01*
X5067300Y3683000D02*
X4965700D01*
Y3429000D02*
X5067300D01*
X5016500Y3378200D02*
Y3479800D01*
Y3257550D02*
Y3092450D01*
X5099050Y3175000D02*
X4933950D01*
X5067300Y3937000D02*
X4965700D01*
X5016500Y5410200D02*
Y5511800D01*
X5067300Y5461000D02*
X4965700D01*
X5016500Y5664200D02*
Y5765800D01*
X5067300Y5715000D02*
X4965700D01*
Y5969000D02*
X5067300D01*
X5016500Y5918200D02*
Y6019800D01*
Y6172200D02*
Y6273800D01*
X5067300Y6223000D02*
X4965700D01*
X5016500Y6426200D02*
Y6527800D01*
X5067300Y6477000D02*
X4965700D01*
Y6731000D02*
X5067300D01*
X5016500Y6680200D02*
Y6781800D01*
Y6934200D02*
Y7035800D01*
X5067300Y6985000D02*
X4965700D01*
X5016500Y7156450D02*
Y7321550D01*
X5099050Y7239000D02*
X4933950D01*
X5283200Y7747000D02*
X5384800D01*
X6045200D02*
X6146800D01*
X6096000Y7696200D02*
Y7797800D01*
X6457950Y7239000D02*
X6623050D01*
X6540500Y7156450D02*
Y7321550D01*
Y7035800D02*
Y6934200D01*
X6489700Y6985000D02*
X6591300D01*
X6540500Y6781800D02*
Y6680200D01*
X6489700Y6731000D02*
X6591300D01*
Y6477000D02*
X6489700D01*
X6540500Y6426200D02*
Y6527800D01*
Y6273800D02*
Y6172200D01*
X6489700Y6223000D02*
X6591300D01*
Y5969000D02*
X6489700D01*
X6540500Y5918200D02*
Y6019800D01*
Y5765800D02*
Y5664200D01*
Y5511800D02*
Y5410200D01*
X6489700Y5461000D02*
X6591300D01*
Y5207000D02*
X6489700D01*
X6540500Y5156200D02*
Y5257800D01*
Y5003800D02*
Y4902200D01*
X6489700Y4953000D02*
X6591300D01*
Y4699000D02*
X6489700D01*
X6540500Y4648200D02*
Y4749800D01*
Y4495800D02*
Y4394200D01*
X6489700Y4445000D02*
X6591300D01*
Y4191000D02*
X6489700D01*
X6540500Y4140200D02*
Y4241800D01*
Y3987800D02*
Y3886200D01*
Y3733800D02*
Y3632200D01*
X6489700Y3683000D02*
X6591300D01*
Y3429000D02*
X6489700D01*
X6540500Y3378200D02*
Y3479800D01*
Y3257550D02*
Y3092450D01*
X6457950Y3175000D02*
X6623050D01*
X7302500Y3187700D02*
Y3289300D01*
X7251700Y3238500D02*
X7353300D01*
X7556500Y3187700D02*
Y3289300D01*
X7505700Y3238500D02*
X7607300D01*
X6591300Y3937000D02*
X6489700D01*
X7759700Y5207000D02*
X7861300D01*
Y5461000D02*
X7759700D01*
X7810500Y5410200D02*
Y5511800D01*
Y5664200D02*
Y5765800D01*
X7759700Y5715000D02*
X7861300D01*
Y5969000D02*
X7759700D01*
X7810500Y5918200D02*
Y6019800D01*
Y5257800D02*
Y5156200D01*
X7099300Y5715000D02*
X6997700D01*
X7048500Y5765800D02*
Y5664200D01*
Y5511800D02*
Y5410200D01*
X6997700Y5461000D02*
X7099300D01*
Y5207000D02*
X6997700D01*
X7048500Y5156200D02*
Y5257800D01*
Y5918200D02*
Y6019800D01*
X6997700Y5969000D02*
X7099300D01*
X6591300Y5715000D02*
X6489700D01*
X5334000Y7696200D02*
Y7797800D01*
X7061200Y9519920D02*
Y9860280D01*
X6891020Y9690100D02*
X7231380D01*
X6985000Y10045700D02*
Y10147300D01*
X6934200Y10096500D02*
X7035800D01*
X6985000Y10299700D02*
Y10401300D01*
X6934200Y10350500D02*
X7035800D01*
X6985000Y10553700D02*
Y10655300D01*
X6934200Y10604500D02*
X7035800D01*
X6985000Y10807700D02*
Y10909300D01*
X6934200Y10858500D02*
X7035800D01*
X7231380Y11264900D02*
X6891020D01*
X7061200Y11094720D02*
Y11435080D01*
X6215380Y11264900D02*
X5875020D01*
X6045200Y11094720D02*
Y11435080D01*
X6019800Y10858500D02*
X5918200D01*
X5969000Y10807700D02*
Y10909300D01*
Y10655300D02*
Y10553700D01*
X5918200Y10604500D02*
X6019800D01*
Y10350500D02*
X5918200D01*
X5969000Y10401300D02*
Y10299700D01*
Y10147300D02*
Y10045700D01*
X5918200Y10096500D02*
X6019800D01*
X6045200Y9860280D02*
Y9519920D01*
X6215380Y9690100D02*
X5875020D01*
X8013700Y9519920D02*
Y9860280D01*
X7843520Y9690100D02*
X8183880D01*
X7937500Y10045700D02*
Y10147300D01*
X7886700Y10096500D02*
X7988300D01*
X7937500Y10299700D02*
Y10401300D01*
X7886700Y10350500D02*
X7988300D01*
X7937500Y10553700D02*
Y10655300D01*
X7886700Y10604500D02*
X7988300D01*
X7937500Y10807700D02*
Y10909300D01*
X7886700Y10858500D02*
X7988300D01*
X8013700Y11094720D02*
Y11435080D01*
X7843520Y11264900D02*
X8183880D01*
X8839200Y10604500D02*
X8940800D01*
Y10350500D02*
X8839200D01*
X8890000Y10401300D02*
Y10299700D01*
Y10147300D02*
Y10045700D01*
X8839200Y10096500D02*
X8940800D01*
X8966200Y9860280D02*
Y9519920D01*
X9136380Y9690100D02*
X8796020D01*
X8890000Y10553700D02*
Y10655300D01*
X8940800Y10858500D02*
X8839200D01*
X8890000Y10807700D02*
Y10909300D01*
X8966200Y11094720D02*
Y11435080D01*
X9136380Y11264900D02*
X8796020D01*
X9842500Y10299700D02*
Y10401300D01*
X9791700Y10350500D02*
X9893300D01*
X9842500Y10553700D02*
Y10655300D01*
X9791700Y10604500D02*
X9893300D01*
Y10096500D02*
X9791700D01*
X9842500Y10045700D02*
Y10147300D01*
X9918700Y9860280D02*
Y9519920D01*
X10088880Y9690100D02*
X9748520D01*
X10934700Y10154920D02*
Y10495280D01*
X10764520Y10325100D02*
X11104880D01*
X11633200Y10160000D02*
X11734800D01*
X11684000Y10109200D02*
Y10210800D01*
Y9956800D02*
Y9855200D01*
X11633200Y9906000D02*
X11734800D01*
Y9652000D02*
X11633200D01*
X11684000Y9702800D02*
Y9601200D01*
Y9448800D02*
Y9347200D01*
X11633200Y9398000D02*
X11734800D01*
Y9144000D02*
X11633200D01*
X11684000Y9093200D02*
Y9194800D01*
X11590020Y8737600D02*
X11930380D01*
X11760200Y8567420D02*
Y8907780D01*
X12649200Y10154920D02*
Y10495280D01*
X12479020Y10325100D02*
X12819380D01*
X13474699Y10160000D02*
X13576300D01*
X13525500Y10109200D02*
Y10210800D01*
Y9956800D02*
Y9855200D01*
X13576300Y9906000D02*
X13474699D01*
Y9652000D02*
X13576300D01*
X13525500Y9702800D02*
Y9601200D01*
Y9448800D02*
Y9347200D01*
X13576300Y9398000D02*
X13474699D01*
Y9144000D02*
X13576300D01*
X13525500Y9093200D02*
Y9194800D01*
X13601700Y8907780D02*
Y8567420D01*
X13771880Y8737600D02*
X13431520D01*
X14091920Y8496300D02*
X14432280D01*
X14262100Y8326120D02*
Y8666480D01*
X14668500Y8521700D02*
Y8623300D01*
X14617700Y8572500D02*
X14719299D01*
X14871700D02*
X14973300D01*
X15125700D02*
X15227299D01*
X15176500Y8623300D02*
Y8521700D01*
X15412720Y8496300D02*
X15753081D01*
X15869920D02*
X16210280D01*
X16040100Y8326120D02*
Y8666480D01*
X16446500Y8521700D02*
Y8623300D01*
X16395700Y8572500D02*
X16497301D01*
X16649699D02*
X16751300D01*
X16903700D02*
X17005299D01*
X16954500Y8623300D02*
Y8521700D01*
X17190720Y8496300D02*
X17531081D01*
X17360899Y8666480D02*
Y8326120D01*
X16751300Y9207500D02*
X16649699D01*
X16700500Y9156700D02*
Y9258300D01*
Y8623300D02*
Y8521700D01*
X15938499Y9156700D02*
Y9258300D01*
X15887700Y9207500D02*
X15989301D01*
X15582899Y8666480D02*
Y8326120D01*
X15163800Y7620000D02*
X15062199D01*
X15113000Y7569200D02*
Y7670800D01*
X15157449Y7239000D02*
X15322549D01*
X15239999Y7156450D02*
Y7321550D01*
Y7035800D02*
Y6934200D01*
X15189200Y6985000D02*
X15290800D01*
X15239999Y6781800D02*
Y6680200D01*
X15189200Y6731000D02*
X15290800D01*
Y6477000D02*
X15189200D01*
X15239999Y6426200D02*
Y6527800D01*
Y6273800D02*
Y6172200D01*
X15189200Y6223000D02*
X15290800D01*
Y5969000D02*
X15189200D01*
X15239999Y5918200D02*
Y6019800D01*
Y5765800D02*
Y5664200D01*
Y5511800D02*
Y5410200D01*
X15189200Y5461000D02*
X15290800D01*
Y5207000D02*
X15189200D01*
X15239999Y5156200D02*
Y5257800D01*
Y5003800D02*
Y4902200D01*
X15189200Y4953000D02*
X15290800D01*
Y4699000D02*
X15189200D01*
X15239999Y4648200D02*
Y4749800D01*
Y4495800D02*
Y4394200D01*
X15189200Y4445000D02*
X15290800D01*
Y4191000D02*
X15189200D01*
X15239999Y4140200D02*
Y4241800D01*
Y3987800D02*
Y3886200D01*
Y3733800D02*
Y3632200D01*
X15189200Y3683000D02*
X15290800D01*
Y3429000D02*
X15189200D01*
X15239999Y3378200D02*
Y3479800D01*
Y3257550D02*
Y3092450D01*
X15157449Y3175000D02*
X15322549D01*
X16002000Y3187700D02*
Y3289300D01*
X15951199Y3238500D02*
X16052800D01*
X16205200D02*
X16306799D01*
X16256000Y3289300D02*
Y3187700D01*
X16986250Y3175000D02*
X17303751D01*
X17145000Y3016250D02*
Y3333750D01*
X17195799Y3995420D02*
Y4335780D01*
X17221201Y4572000D02*
X17322800D01*
X17272000Y4521200D02*
Y4622800D01*
X17365981Y4165600D02*
X17025620D01*
X16510001Y4521200D02*
Y4622800D01*
X16459200Y4572000D02*
X16560800D01*
Y4127500D02*
X16459200D01*
X16510001Y4076700D02*
Y4178300D01*
X17221201Y4826000D02*
X17322800D01*
X17272000Y4775200D02*
Y4876800D01*
Y5029200D02*
Y5130800D01*
X17221201Y5080000D02*
X17322800D01*
X17272000Y5283200D02*
Y5384800D01*
Y5537200D02*
Y5638800D01*
X17221201Y5588000D02*
X17322800D01*
Y5334000D02*
X17221201D01*
X17195799Y5824220D02*
Y6164580D01*
X17365981Y5994400D02*
X17025620D01*
X16560800Y5969000D02*
X16459200D01*
X16510001Y5918200D02*
Y6019800D01*
Y5765800D02*
Y5664200D01*
Y5511800D02*
Y5410200D01*
X16459200Y5461000D02*
X16560800D01*
Y5207000D02*
X16459200D01*
X16510001Y5156200D02*
Y5257800D01*
X16459200Y5715000D02*
X16560800D01*
X15798801D02*
X15697200D01*
X15748000Y5765800D02*
Y5664200D01*
Y5511800D02*
Y5410200D01*
X15697200Y5461000D02*
X15798801D01*
Y5207000D02*
X15697200D01*
X15748000Y5156200D02*
Y5257800D01*
Y4622800D02*
Y4521200D01*
X15697200Y4572000D02*
X15798801D01*
Y4127500D02*
X15697200D01*
X15748000Y4076700D02*
Y4178300D01*
X15290800Y3937000D02*
X15189200D01*
X13716000Y5410200D02*
Y5511800D01*
X13665199Y5461000D02*
X13766800D01*
X13716000Y5664200D02*
Y5765800D01*
X13665199Y5715000D02*
X13766800D01*
X13716000Y5918200D02*
Y6019800D01*
X13665199Y5969000D02*
X13766800D01*
X13716000Y6172200D02*
Y6273800D01*
X13665199Y6223000D02*
X13766800D01*
X13716000Y6426200D02*
Y6527800D01*
X13665199Y6477000D02*
X13766800D01*
X13716000Y6680200D02*
Y6781800D01*
Y6934200D02*
Y7035800D01*
X13665199Y6985000D02*
X13766800D01*
Y6731000D02*
X13665199D01*
X13716000Y7156450D02*
Y7321550D01*
X13633450Y7239000D02*
X13798550D01*
X14300200Y7620000D02*
X14401801D01*
X14350999Y7569200D02*
Y7670800D01*
X14922501Y8521700D02*
Y8623300D01*
X14973300Y9207500D02*
X14871700D01*
X14922501Y9156700D02*
Y9258300D01*
X15455901Y9977120D02*
Y10317480D01*
X15626080Y10147300D02*
X15285719D01*
X15049500Y10167620D02*
Y10279380D01*
X14993620Y10223500D02*
X15105380D01*
X14851379D02*
X14739619D01*
X14795500Y10167620D02*
Y10279380D01*
X14559280Y10147300D02*
X14218919D01*
X14389101Y9977120D02*
Y10317480D01*
X14160500Y9258300D02*
Y9156700D01*
X14109700Y9207500D02*
X14211301D01*
X13601700Y10396220D02*
Y10736580D01*
X13771880Y10566400D02*
X13431520D01*
X12573000Y11036300D02*
Y10934700D01*
X12522200Y10985500D02*
X12623800D01*
Y10731500D02*
X12522200D01*
X12573000Y10680700D02*
Y10782300D01*
X12649200Y11221720D02*
Y11562080D01*
X12479020Y11391900D02*
X12819380D01*
X12319000Y12204700D02*
Y12306300D01*
X12268200Y12255500D02*
X12369800D01*
X12319000Y12966701D02*
Y13068300D01*
X12268200Y13017500D02*
X12369800D01*
X12496800Y13970000D02*
X12395200D01*
X12446000Y13919200D02*
Y14020799D01*
X12242800Y13970000D02*
X12141200D01*
X12192000Y13919200D02*
Y14020799D01*
X12649200Y13970000D02*
X12750800D01*
X12700000Y13919200D02*
Y14020799D01*
X12827000Y14808200D02*
Y14909801D01*
X12877800Y14859000D02*
X12776200D01*
X12979401Y15273019D02*
Y15613380D01*
X13149580Y15443201D02*
X12809219D01*
X12623800Y15367000D02*
X12522200D01*
X12573000Y15316200D02*
Y15417799D01*
X12369800Y15367000D02*
X12268200D01*
X12319000Y15316200D02*
Y15417799D01*
X12082780Y15443201D02*
X11742420D01*
X11625580D02*
X11285220D01*
X11099800Y15367000D02*
X10998200D01*
X10845800D02*
X10744200D01*
X10795000Y15316200D02*
Y15417799D01*
X11049000D02*
Y15316200D01*
X11455400Y15273019D02*
Y15613380D01*
X11912600Y15273019D02*
Y15613380D01*
X12014200Y14859000D02*
X12115800D01*
X12065000Y14808200D02*
Y14909801D01*
X11226800Y14859000D02*
X11125200D01*
X11176000Y14808200D02*
Y14909801D01*
X10998200Y13970000D02*
X11099800D01*
X11049000Y13919200D02*
Y14020799D01*
X10845800Y13970000D02*
X10744200D01*
X10795000Y13919200D02*
Y14020799D01*
X10591800Y13970000D02*
X10490200D01*
X10541000Y13919200D02*
Y14020799D01*
X10414000Y14808200D02*
Y14909801D01*
X10363200Y14859000D02*
X10464800D01*
X10134600Y15273019D02*
Y15613380D01*
X9964420Y15443201D02*
X10304780D01*
X10490200Y15367000D02*
X10591800D01*
X10541000Y15316200D02*
Y15417799D01*
X9593580Y15443201D02*
X9253220D01*
X9423400Y15613380D02*
Y15273019D01*
X9017000Y15316200D02*
Y15417799D01*
X8966200Y15367000D02*
X9067800D01*
X8813800D02*
X8712200D01*
X8763000Y15316200D02*
Y15417799D01*
X8526780Y15443201D02*
X8186420D01*
X8356600Y15613380D02*
Y15273019D01*
X8069580Y15443201D02*
X7729220D01*
X7543800Y15367000D02*
X7442200D01*
X7289800D02*
X7188200D01*
X7239000Y15316200D02*
Y15417799D01*
X7493000D02*
Y15316200D01*
X7899400Y15273019D02*
Y15613380D01*
X7797800Y14478000D02*
X7696200D01*
X7747000Y14427200D02*
Y14528799D01*
Y14084300D02*
Y13982700D01*
X7696200Y14033501D02*
X7797800D01*
Y13589000D02*
X7696200D01*
X7747000Y13538200D02*
Y13639799D01*
X7416800Y13081000D02*
X7315200D01*
X7366000Y13030200D02*
Y13131799D01*
X7162800Y13081000D02*
X7061200D01*
X7112000Y13030200D02*
Y13131799D01*
X7569200Y13081000D02*
X7670800D01*
X7620000Y13030200D02*
Y13131799D01*
X8458200Y13589000D02*
X8559800D01*
X9220200D02*
X9321800D01*
X9271000Y13538200D02*
Y13639799D01*
Y13982700D02*
Y14084300D01*
X9321800Y14033501D02*
X9220200D01*
X9271000Y14427200D02*
Y14528799D01*
X9321800Y14478000D02*
X9220200D01*
X8559800D02*
X8458200D01*
X8509000Y14427200D02*
Y14528799D01*
Y14084300D02*
Y13982700D01*
X8458200Y14033501D02*
X8559800D01*
X8509000Y13639799D02*
Y13538200D01*
X8585200Y13081000D02*
X8686800D01*
X8636000Y13030200D02*
Y13131799D01*
X8839200Y13081000D02*
X8940800D01*
X9093200D02*
X9194800D01*
X9144000Y13030200D02*
Y13131799D01*
X8890000D02*
Y13030200D01*
X9918700Y11435080D02*
Y11094720D01*
X9748520Y11264900D02*
X10088880D01*
X9893300Y10858500D02*
X9791700D01*
X9842500Y10807700D02*
Y10909300D01*
X10807700Y10985500D02*
X10909300D01*
X10858500Y10934700D02*
Y11036300D01*
X10934700Y11221720D02*
Y11562080D01*
X10764520Y11391900D02*
X11104880D01*
X10909300Y10731500D02*
X10807700D01*
X10858500Y10680700D02*
Y10782300D01*
X11590020Y10566400D02*
X11930380D01*
X11760200Y10396220D02*
Y10736580D01*
X10604500Y12204700D02*
Y12306300D01*
X10553700Y12255500D02*
X10655300D01*
X10604500Y12966701D02*
Y13068300D01*
X10553700Y13017500D02*
X10655300D01*
X13436600Y15273019D02*
Y15613380D01*
X13266420Y15443201D02*
X13606779D01*
X13792200Y15367000D02*
X13893800D01*
X14046201D02*
X14147800D01*
X14097000Y15316200D02*
Y15417799D01*
X14503400Y15273019D02*
Y15613380D01*
X14333220Y15443201D02*
X14673579D01*
X14790421D02*
X15130780D01*
X14960600Y15613380D02*
Y15273019D01*
X15062199Y14859000D02*
X15163800D01*
X15113000Y14808200D02*
Y14909801D01*
X15189200Y13970000D02*
X15290800D01*
X15239999Y13919200D02*
Y14020799D01*
X15443201Y13970000D02*
X15544800D01*
X15494000Y13919200D02*
Y14020799D01*
X15697200Y13970000D02*
X15798801D01*
X15748000Y13919200D02*
Y14020799D01*
X15824200Y14859000D02*
X15925800D01*
X15875000Y14808200D02*
Y14909801D01*
X16027400Y15273019D02*
Y15613380D01*
X16197580Y15443201D02*
X15857220D01*
X15671800Y15367000D02*
X15570200D01*
X15621001Y15316200D02*
Y15417799D01*
X15417799Y15367000D02*
X15316200D01*
X15367000Y15316200D02*
Y15417799D01*
X14401801Y14859000D02*
X14300200D01*
X14350999Y14808200D02*
Y14909801D01*
X14224001Y14020799D02*
Y13919200D01*
X14173199Y13970000D02*
X14274800D01*
X14020799D02*
X13919200D01*
X13970000Y13919200D02*
Y14020799D01*
X13766800Y13970000D02*
X13665199D01*
X13716000Y13919200D02*
Y14020799D01*
X13589000Y14808200D02*
Y14909801D01*
X13538200Y14859000D02*
X13639799D01*
X13842999Y15316200D02*
Y15417799D01*
X13982700Y13017500D02*
X14084300D01*
X14033501Y12966701D02*
Y13068300D01*
Y12306300D02*
Y12204700D01*
X13982700Y12255500D02*
X14084300D01*
X15697200D02*
X15798801D01*
X15748000Y12204700D02*
Y12306300D01*
Y12966701D02*
Y13068300D01*
X15697200Y13017500D02*
X15798801D01*
X15933420Y10147300D02*
X16273779D01*
X16103600Y9977120D02*
Y10317480D01*
X16454120Y10223500D02*
X16565880D01*
X16510001Y10167620D02*
Y10279380D01*
X16708121Y10223500D02*
X16819881D01*
X16764000Y10167620D02*
Y10279380D01*
X17000220Y10147300D02*
X17340581D01*
X17170399Y9977120D02*
Y10317480D01*
X15290800Y5715000D02*
X15189200D01*
X15697200Y5969000D02*
X15798801D01*
X15748000Y5918200D02*
Y6019800D01*
X13766800Y5207000D02*
X13665199D01*
X13716000Y5156200D02*
Y5257800D01*
Y5003800D02*
Y4902200D01*
X13665199Y4953000D02*
X13766800D01*
Y4699000D02*
X13665199D01*
X13716000Y4648200D02*
Y4749800D01*
Y4495800D02*
Y4394200D01*
X13665199Y4445000D02*
X13766800D01*
Y4191000D02*
X13665199D01*
X13716000Y4140200D02*
Y4241800D01*
Y3987800D02*
Y3886200D01*
Y3733800D02*
Y3632200D01*
X13665199Y3683000D02*
X13766800D01*
Y3429000D02*
X13665199D01*
X13716000Y3378200D02*
Y3479800D01*
Y3257550D02*
Y3092450D01*
X13633450Y3175000D02*
X13798550D01*
X13766800Y3937000D02*
X13665199D01*
X12255500Y5410200D02*
Y5511800D01*
X12204700Y5461000D02*
X12306300D01*
X12255500Y5664200D02*
Y5765800D01*
X12204700Y5715000D02*
X12306300D01*
X12255500Y5918200D02*
Y6019800D01*
X12204700Y5969000D02*
X12306300D01*
Y5207000D02*
X12204700D01*
X12255500Y5156200D02*
Y5257800D01*
X11544300Y5715000D02*
X11442700D01*
X11493500Y5765800D02*
Y5664200D01*
Y5511800D02*
Y5410200D01*
X11442700Y5461000D02*
X11544300D01*
Y5207000D02*
X11442700D01*
X11493500Y5156200D02*
Y5257800D01*
X11036300Y5461000D02*
X10934700D01*
X10985500Y5410200D02*
Y5511800D01*
Y5664200D02*
Y5765800D01*
X10934700Y5715000D02*
X11036300D01*
Y5969000D02*
X10934700D01*
X10985500Y5918200D02*
Y6019800D01*
X11036300Y6223000D02*
X10934700D01*
X10985500Y6172200D02*
Y6273800D01*
X11036300Y6477000D02*
X10934700D01*
X10985500Y6426200D02*
Y6527800D01*
Y6680200D02*
Y6781800D01*
Y6934200D02*
Y7035800D01*
X10934700Y6985000D02*
X11036300D01*
Y6731000D02*
X10934700D01*
X11442700Y5969000D02*
X11544300D01*
X11493500Y5918200D02*
Y6019800D01*
X11036300Y5207000D02*
X10934700D01*
X10985500Y5156200D02*
Y5257800D01*
Y5003800D02*
Y4902200D01*
X10934700Y4953000D02*
X11036300D01*
Y4699000D02*
X10934700D01*
X10985500Y4648200D02*
Y4749800D01*
Y4495800D02*
Y4394200D01*
X10934700Y4445000D02*
X11036300D01*
Y4191000D02*
X10934700D01*
X10985500Y4140200D02*
Y4241800D01*
Y3987800D02*
Y3886200D01*
Y3733800D02*
Y3632200D01*
X10934700Y3683000D02*
X11036300D01*
Y3429000D02*
X10934700D01*
X10985500Y3378200D02*
Y3479800D01*
Y3257550D02*
Y3092450D01*
X10902950Y3175000D02*
X11068050D01*
X11696700Y3238500D02*
X11798300D01*
X11747500Y3289300D02*
Y3187700D01*
X12001500D02*
Y3289300D01*
X11950700Y3238500D02*
X12052300D01*
X11036300Y3937000D02*
X10934700D01*
X9461500Y5410200D02*
Y5511800D01*
X9410700Y5461000D02*
X9512300D01*
X9461500Y5664200D02*
Y5765800D01*
X9410700Y5715000D02*
X9512300D01*
X9461500Y5918200D02*
Y6019800D01*
X9410700Y5969000D02*
X9512300D01*
X9461500Y6172200D02*
Y6273800D01*
X9410700Y6223000D02*
X9512300D01*
X9461500Y6426200D02*
Y6527800D01*
X9410700Y6477000D02*
X9512300D01*
X9461500Y6680200D02*
Y6781800D01*
Y6934200D02*
Y7035800D01*
X9410700Y6985000D02*
X9512300D01*
Y6731000D02*
X9410700D01*
X9461500Y7156450D02*
Y7321550D01*
X9378950Y7239000D02*
X9544050D01*
X10045700Y7620000D02*
X10147300D01*
X10096500Y7569200D02*
Y7670800D01*
X10902950Y7239000D02*
X11068050D01*
X10858500Y7569200D02*
Y7670800D01*
X10807700Y7620000D02*
X10909300D01*
X10985500Y7321550D02*
Y7156450D01*
X9512300Y5207000D02*
X9410700D01*
X9461500Y5156200D02*
Y5257800D01*
Y5003800D02*
Y4902200D01*
X9410700Y4953000D02*
X9512300D01*
Y4699000D02*
X9410700D01*
X9461500Y4648200D02*
Y4749800D01*
Y4495800D02*
Y4394200D01*
X9410700Y4445000D02*
X9512300D01*
Y4191000D02*
X9410700D01*
X9461500Y4140200D02*
Y4241800D01*
Y3987800D02*
Y3886200D01*
Y3733800D02*
Y3632200D01*
X9410700Y3683000D02*
X9512300D01*
Y3429000D02*
X9410700D01*
X9461500Y3378200D02*
Y3479800D01*
Y3257550D02*
Y3092450D01*
X9378950Y3175000D02*
X9544050D01*
X9512300Y3937000D02*
X9410700D01*
X3683000Y9664700D02*
Y9766300D01*
X3632200Y9715500D02*
X3733800D01*
X3479800D02*
X3378200D01*
X3429000Y9664700D02*
Y9766300D01*
X3225800Y9715500D02*
X3124200D01*
X3175000Y9664700D02*
Y9766300D01*
X3810000Y10998200D02*
Y11099800D01*
X3759200Y11049000D02*
X3860800D01*
X3810000Y11760200D02*
Y11861800D01*
X3759200Y11811000D02*
X3860800D01*
X3810000Y12712700D02*
Y12814301D01*
X3759200Y12763500D02*
X3860800D01*
X3810000Y13474699D02*
Y13576300D01*
X3759200Y13525500D02*
X3860800D01*
X4191000Y14528799D02*
Y14681200D01*
X4114800Y14605000D02*
X4267200D01*
X4622800D02*
X4775200D01*
X4699000Y14681200D02*
Y14528799D01*
X5638800Y14605000D02*
X5791200D01*
X5715000Y14681200D02*
Y14528799D01*
X6223000D02*
Y14681200D01*
X6146800Y14605000D02*
X6299200D01*
X6934200Y14033501D02*
X7035800D01*
X6985000Y13982700D02*
Y14084300D01*
Y13639799D02*
Y13538200D01*
X6934200Y13589000D02*
X7035800D01*
X6985000Y14427200D02*
Y14528799D01*
X6934200Y14478000D02*
X7035800D01*
X6832600Y15273019D02*
Y15613380D01*
X7002780Y15443201D02*
X6662420D01*
X5588000Y15887700D02*
Y15989301D01*
X5537200Y15938499D02*
X5638800D01*
X5080000Y16078200D02*
Y16179800D01*
X5029200Y16128999D02*
X5130800D01*
Y15367000D02*
X5029200D01*
X5080000Y15316200D02*
Y15417799D01*
X5537200Y15176500D02*
X5638800D01*
X5588000Y15125700D02*
Y15227299D01*
X3558540Y15673907D02*
Y15826308D01*
X3634740Y15750108D02*
X3482340D01*
X3558540Y15316200D02*
Y15163800D01*
X3634740Y15239999D02*
X3482340D01*
X3175000Y16986250D02*
Y17303751D01*
X3016250Y17145000D02*
X3333750D01*
X16986250D02*
X17303751D01*
X17145000Y17303751D02*
Y16986250D01*
%TF.MD5,D7815E99D996B2B697F6E732F764F022*%
M02*
