M48
;Layer_Color=6321
;FILE_FORMAT=2:5
INCH,TZ
;TYPE=PLATED
T1F00S00C0.02800
T2F00S00C0.03000
T3F00S00C0.03200
T4F00S00C0.03543
T5F00S00C0.03600
T6F00S00C0.04291
%
T01
X97500Y45000
X102500Y52500
X137500Y47500
X145000Y67500
X97500Y90000
X67500Y72500
X35000Y97500
T02
X65000Y45000
X172500Y25000
Y5000
X170000Y85000
X160000
X150000
X140000
X130000
Y115000
X140000
X150000
X160000
X170000
X92500Y82500
T03
X10500Y5500
X20500
X30500
X40500
X50500
X60500
X70500
X80500
X90500
X100500
X110500
X120500
X130500
X140500
X150500
X160500
T04
X12500Y55000
X172500Y47500
Y37500
Y57500
X12500Y65000
Y75000
T05
X12500Y45000
X172500Y67500
T06
X70000Y110000
X80000
X90000
X100000
X42500
X32500
X22500
X12500
M30
