G04 Layer_Color=8150272*
%FSLAX25Y25*%
%MOIN*%
G70*
G01*
G75*
%ADD52R,0.05131X0.06312*%
%ADD56R,0.06902X0.06902*%
%ADD58O,0.08300X0.09300*%
%ADD59R,0.09300X0.06800*%
%ADD60O,0.09300X0.06800*%
G04:AMPARAMS|DCode=61|XSize=68mil|YSize=93mil|CornerRadius=19mil|HoleSize=0mil|Usage=FLASHONLY|Rotation=90.000|XOffset=0mil|YOffset=0mil|HoleType=Round|Shape=RoundedRectangle|*
%AMROUNDEDRECTD61*
21,1,0.06800,0.05500,0,0,90.0*
21,1,0.03000,0.09300,0,0,90.0*
1,1,0.03800,0.02750,0.01500*
1,1,0.03800,0.02750,-0.01500*
1,1,0.03800,-0.02750,-0.01500*
1,1,0.03800,-0.02750,0.01500*
%
%ADD61ROUNDEDRECTD61*%
%ADD62C,0.05800*%
%ADD63R,0.06800X0.06800*%
%ADD64C,0.06800*%
%ADD65R,0.10446X0.10839*%
%ADD66R,0.06900X0.11700*%
D52*
X105945Y75000D02*
D03*
X99055D02*
D03*
X80945Y45000D02*
D03*
X74055D02*
D03*
D56*
X98858Y37500D02*
D03*
X106142D02*
D03*
X73858Y35000D02*
D03*
X81142D02*
D03*
D58*
X100000Y110000D02*
D03*
X90000D02*
D03*
X80000D02*
D03*
X70000D02*
D03*
X42500D02*
D03*
X32500D02*
D03*
X22500D02*
D03*
X12500D02*
D03*
D59*
X172500Y37500D02*
D03*
X12500Y75000D02*
D03*
D60*
X172500Y47500D02*
D03*
X12500Y65000D02*
D03*
D61*
X172500Y57500D02*
D03*
Y67500D02*
D03*
X12500Y55000D02*
D03*
Y45000D02*
D03*
D62*
X172500Y25000D02*
D03*
Y5000D02*
D03*
X92500Y82500D02*
D03*
X65000Y45000D02*
D03*
X137500Y47500D02*
D03*
X102500Y52500D02*
D03*
X145000Y67500D02*
D03*
X97500Y45000D02*
D03*
X67500Y72500D02*
D03*
X97500Y90000D02*
D03*
X35000Y97500D02*
D03*
D63*
X10500Y5500D02*
D03*
D64*
X20500D02*
D03*
X30500D02*
D03*
X40500D02*
D03*
X50500D02*
D03*
X60500D02*
D03*
X70500D02*
D03*
X80500D02*
D03*
X90500D02*
D03*
X100500D02*
D03*
X110500D02*
D03*
X120500D02*
D03*
X130500D02*
D03*
X140500D02*
D03*
X150500D02*
D03*
X160500D02*
D03*
X130000Y115000D02*
D03*
X140000D02*
D03*
X150000D02*
D03*
X160000D02*
D03*
X170000D02*
D03*
Y85000D02*
D03*
X160000D02*
D03*
X150000D02*
D03*
X140000D02*
D03*
X130000D02*
D03*
D65*
X32000Y41091D02*
D03*
Y64909D02*
D03*
D66*
X13100Y87500D02*
D03*
X31900D02*
D03*
M02*
