G04 Layer_Color=20142*
%FSLAX25Y25*%
%MOIN*%
G70*
G01*
G75*
%ADD44R,0.08674X0.07099*%
%ADD45O,0.03162X0.08477*%
%ADD46O,0.08477X0.03162*%
%ADD47R,0.05131X0.03162*%
%ADD48R,0.13595X0.09265*%
%ADD49R,0.04737X0.09265*%
%ADD50O,0.10052X0.03556*%
%ADD51R,0.10052X0.03556*%
%ADD52R,0.05131X0.06312*%
%ADD53R,0.05328X0.05918*%
%ADD54R,0.06312X0.05131*%
%ADD55R,0.05000X0.05800*%
%ADD56R,0.06902X0.06902*%
%ADD57R,0.10839X0.10446*%
%ADD58O,0.08300X0.09300*%
%ADD59R,0.09300X0.06800*%
%ADD60O,0.09300X0.06800*%
G04:AMPARAMS|DCode=61|XSize=68mil|YSize=93mil|CornerRadius=19mil|HoleSize=0mil|Usage=FLASHONLY|Rotation=90.000|XOffset=0mil|YOffset=0mil|HoleType=Round|Shape=RoundedRectangle|*
%AMROUNDEDRECTD61*
21,1,0.06800,0.05500,0,0,90.0*
21,1,0.03000,0.09300,0,0,90.0*
1,1,0.03800,0.02750,0.01500*
1,1,0.03800,0.02750,-0.01500*
1,1,0.03800,-0.02750,-0.01500*
1,1,0.03800,-0.02750,0.01500*
%
%ADD61ROUNDEDRECTD61*%
%ADD62C,0.05800*%
%ADD63R,0.06800X0.06800*%
%ADD64C,0.06800*%
D44*
X131870Y30000D02*
D03*
X153130D02*
D03*
D45*
X86476Y61634D02*
D03*
X89626D02*
D03*
X92776D02*
D03*
X95925D02*
D03*
X99075D02*
D03*
X102225D02*
D03*
X105374D02*
D03*
X108524D02*
D03*
Y28366D02*
D03*
X105374D02*
D03*
X102225D02*
D03*
X99075D02*
D03*
X95925D02*
D03*
X92776D02*
D03*
X89626D02*
D03*
X86476D02*
D03*
D46*
X114134Y56024D02*
D03*
Y52874D02*
D03*
Y49725D02*
D03*
Y46575D02*
D03*
Y43425D02*
D03*
Y40276D02*
D03*
Y37126D02*
D03*
Y33976D02*
D03*
X80866D02*
D03*
Y37126D02*
D03*
Y40276D02*
D03*
Y43425D02*
D03*
Y46575D02*
D03*
Y49725D02*
D03*
Y52874D02*
D03*
Y56024D02*
D03*
D47*
X56600Y51300D02*
D03*
Y58700D02*
D03*
X68400D02*
D03*
Y55000D02*
D03*
Y51300D02*
D03*
D48*
X37500Y38465D02*
D03*
D49*
X28445Y61536D02*
D03*
X37500D02*
D03*
X46555D02*
D03*
D50*
X51221Y87500D02*
D03*
Y82500D02*
D03*
Y77500D02*
D03*
Y72500D02*
D03*
X78780Y87500D02*
D03*
Y82500D02*
D03*
Y77500D02*
D03*
D51*
Y72500D02*
D03*
D52*
X149055Y45000D02*
D03*
X155945D02*
D03*
X118445Y17500D02*
D03*
X111555D02*
D03*
D53*
X125571D02*
D03*
X134429D02*
D03*
D54*
X115000Y106555D02*
D03*
Y113445D02*
D03*
X25000Y80945D02*
D03*
Y74055D02*
D03*
D55*
X56173Y37500D02*
D03*
X63827D02*
D03*
D56*
X63642Y27500D02*
D03*
X56358D02*
D03*
D57*
X130591Y67500D02*
D03*
X154410D02*
D03*
X44409Y22500D02*
D03*
X20591D02*
D03*
D58*
X100000Y110000D02*
D03*
X90000D02*
D03*
X80000D02*
D03*
X70000D02*
D03*
X42500D02*
D03*
X32500D02*
D03*
X22500D02*
D03*
X12500D02*
D03*
D59*
X172500Y37500D02*
D03*
X12500Y75000D02*
D03*
D60*
X172500Y47500D02*
D03*
X12500Y65000D02*
D03*
D61*
X172500Y57500D02*
D03*
Y67500D02*
D03*
X12500Y55000D02*
D03*
Y45000D02*
D03*
D62*
X172500Y25000D02*
D03*
Y5000D02*
D03*
X92500Y82500D02*
D03*
X65000Y45000D02*
D03*
X137500Y47500D02*
D03*
X102500Y52500D02*
D03*
X145000Y67500D02*
D03*
X97500Y45000D02*
D03*
X67500Y72500D02*
D03*
X97500Y90000D02*
D03*
X35000Y97500D02*
D03*
D63*
X10500Y5500D02*
D03*
D64*
X20500D02*
D03*
X30500D02*
D03*
X40500D02*
D03*
X50500D02*
D03*
X60500D02*
D03*
X70500D02*
D03*
X80500D02*
D03*
X90500D02*
D03*
X100500D02*
D03*
X110500D02*
D03*
X120500D02*
D03*
X130500D02*
D03*
X140500D02*
D03*
X150500D02*
D03*
X160500D02*
D03*
X130000Y115000D02*
D03*
X140000D02*
D03*
X150000D02*
D03*
X160000D02*
D03*
X170000D02*
D03*
Y85000D02*
D03*
X160000D02*
D03*
X150000D02*
D03*
X140000D02*
D03*
X130000D02*
D03*
M02*
